<svg width="157" height="136" viewBox="0 0 157 136" fill="none" xmlns="http://www.w3.org/2000/svg">
<path d="M73.8085 116.499C73.8085 116.499 72.3445 132.273 82.7829 133.057C93.2212 133.84 112.495 133.525 115.781 131.49C119.068 129.455 121.572 125.854 122.047 122.56C122.523 119.266 117.707 112.077 117.707 112.077L73.8085 116.499Z" fill="#455A64"/>
<path d="M120.137 130.722C120.137 130.824 110.248 130.912 98.0451 130.912C85.8427 130.912 75.9534 130.824 75.9534 130.722C75.9534 130.619 85.8427 130.531 98.0451 130.531C110.248 130.531 120.137 130.612 120.137 130.722Z" fill="#263238"/>
<path d="M155.99 12.7011L156.583 9.67067C156.613 9.50336 156.609 9.33164 156.571 9.16602C156.532 9.00039 156.461 8.84432 156.36 8.70733C156.259 8.57034 156.132 8.45529 155.985 8.36921C155.838 8.28313 155.676 8.22784 155.507 8.20667L152.264 7.78943C152.264 7.78943 151.796 8.52142 152.169 9.10702C152.542 9.69262 154.76 10.022 154.76 10.022V13.0232L155.99 12.7011Z" fill="#AA6550"/>
<path d="M87.6067 62.0965C88.6272 62.0821 89.6342 61.8621 90.5677 61.4496C91.5012 61.0371 92.3419 60.4406 93.0396 59.6958C93.7373 58.9509 94.2776 58.0731 94.6282 57.1146C94.9789 56.1562 95.1327 55.1369 95.0804 54.1177C94.8755 49.9819 94.6412 45.8022 94.6412 45.8022C94.6412 45.8022 100.834 44.6603 100.739 38.4822C100.644 32.3041 99.165 17.9862 99.165 17.9862C95.589 16.5656 91.6985 16.126 87.8957 16.7129C84.0928 17.2997 80.5158 18.8916 77.5344 21.3241L76.634 22.0561L79.9354 55.2596C80.1258 57.1528 81.0196 58.9056 82.44 60.1715C83.8605 61.4375 85.7042 62.1244 87.6067 62.0965Z" fill="#FFBE9D"/>
<path d="M156.078 9.46571L148.758 12.9647C148.473 10.6662 146.686 8.39699 146.789 9.55355C146.891 10.7101 146.877 16.7125 146.877 16.7125L136.717 38.6725C135.34 42.1495 132.5 44.3601 130.37 44.8945L120.7 47.903L124.624 60.6911L138.063 56.0795C139.785 55.4892 141.343 54.5036 142.615 53.2019C143.886 51.9001 144.834 50.3184 145.383 48.5838L154.372 20.1749C154.981 18.3445 155.471 16.4764 155.836 14.5824C156.052 12.8859 156.133 11.175 156.078 9.46571Z" fill="#B78876"/>
<path d="M55.245 83.5002C55.245 83.5002 64.6146 59.1319 65.4271 58.3267C70.4999 53.3564 77.5198 53.2027 77.5198 53.2027L96.6323 51.6655C96.6323 51.6655 111.499 48.4447 120.137 46.1902L125.554 63.824L109.098 69.3726L109.318 89.8686L114.442 105.08C115.438 106.85 116.307 108.69 117.04 110.584L117.721 112.348L73.523 116.74C72.9155 111.616 77.6881 98.25 77.6881 98.25L72.6739 78.4494L71.7809 86.2672L55.245 83.5002Z" fill="#E0E0E0"/>
<path d="M108.842 74.4234C108.06 74.3205 107.265 74.3931 106.514 74.6357C105.644 74.9402 104.836 75.3989 104.128 75.9899C103.194 76.7899 102.307 77.6428 101.471 78.5446C100.436 79.6723 99.1419 80.5314 97.701 81.048C96.0021 81.5332 94.1986 81.5128 92.5111 80.9894C90.6622 80.4418 88.9266 79.5666 87.3871 78.4055C85.7767 77.2343 84.2468 75.8654 82.6072 74.5771C81.0567 73.2835 79.316 72.2367 77.4466 71.4734C75.6956 70.7894 73.8424 70.4034 71.9639 70.3315C68.773 70.1929 65.6116 70.9947 62.8724 72.6373C61.0271 73.7521 59.4019 75.1961 58.0779 76.8976C57.6167 77.5051 57.2873 78.0029 57.075 78.3616C56.9755 78.5421 56.8604 78.7135 56.731 78.874C56.8007 78.6781 56.889 78.4894 56.9945 78.3103C58.358 75.8748 60.3272 73.8325 62.7114 72.3811C65.4919 70.6558 68.723 69.7971 71.9932 69.9143C73.9185 69.9715 75.8199 70.3577 77.6149 71.0562C79.5306 71.8285 81.3138 72.8955 82.9 74.2184C84.547 75.5141 86.0695 76.8829 87.658 78.0395C89.1486 79.1797 90.8321 80.0426 92.6282 80.5869C94.2408 81.0994 95.9675 81.1325 97.5985 80.682C98.9945 80.1999 100.251 79.3831 101.259 78.303C102.118 77.4107 103.027 76.5675 103.982 75.7776C104.726 75.1917 105.569 74.7431 106.47 74.4527C107.043 74.2738 107.646 74.214 108.242 74.277C108.448 74.2973 108.65 74.3466 108.842 74.4234Z" fill="#FAFAFA"/>
<path d="M109.662 93.0089C109.662 93.0601 109.164 93.104 108.293 93.3895C107.088 93.8342 105.959 94.464 104.948 95.2561C103.638 96.2223 102.232 97.5765 100.512 98.9161C98.6155 100.369 96.4441 101.423 94.1289 102.012C91.8132 102.588 89.4116 102.735 87.0431 102.444C85.1143 102.207 83.2347 101.668 81.4726 100.849C80.7979 100.537 80.1427 100.185 79.5108 99.7945C78.9765 99.4139 78.508 99.0991 78.1493 98.8136C77.7735 98.5167 77.4211 98.1912 77.0952 97.8401C78.4881 98.9209 80.0011 99.8371 81.6043 100.57C83.3511 101.33 85.2016 101.823 87.0943 102.034C89.4112 102.295 91.756 102.141 94.0191 101.581C96.279 101.008 98.4018 99.9906 100.263 98.5867C101.976 97.2838 103.411 95.9369 104.765 94.9926C105.813 94.2004 106.993 93.5983 108.249 93.2138C108.591 93.1159 108.942 93.0498 109.296 93.0162C109.417 92.9943 109.54 92.9919 109.662 93.0089Z" fill="#FAFAFA"/>
<path d="M112.509 52.8733C112.977 52.5719 113.504 52.3724 114.054 52.2877C115.364 51.9985 116.72 51.9865 118.035 52.2525C119.349 52.5185 120.594 53.0566 121.689 53.8322C122.159 54.1254 122.565 54.5114 122.882 54.9668C122.409 54.7005 121.952 54.4072 121.513 54.0884C119.301 52.729 116.679 52.1974 114.112 52.5878C113.584 52.7139 113.049 52.8092 112.509 52.8733Z" fill="#FAFAFA"/>
<path d="M90.1395 113.585C91.325 113.303 92.4817 112.911 93.5946 112.414C94.7803 111.835 95.9163 111.159 96.991 110.394L100.973 107.554C102.317 106.603 103.758 105.796 105.27 105.145C106.525 104.648 107.839 104.313 109.179 104.15C110.078 104.043 110.984 104.018 111.887 104.077C112.219 104.084 112.549 104.133 112.868 104.223C111.645 104.234 110.423 104.312 109.208 104.457C107.907 104.663 106.634 105.022 105.416 105.526C103.94 106.182 102.532 106.984 101.215 107.92C99.7946 108.893 98.4697 109.889 97.218 110.731C96.1101 111.49 94.9366 112.149 93.7117 112.7C93.192 112.934 92.6869 113.088 92.2477 113.234C91.8085 113.38 91.4205 113.439 91.1058 113.505C90.7877 113.568 90.4636 113.595 90.1395 113.585Z" fill="#FAFAFA"/>
<path d="M96.1273 12.4157C107.327 13.4917 103.023 28.183 105.819 32.6335C106.858 34.2805 108.571 35.5103 109.947 36.9596C111.324 38.409 112.392 40.3049 111.792 42.1349C111.28 43.7233 109.596 45.1507 109.984 46.7392C110.211 47.581 110.994 48.2032 111.587 48.8912C112.279 49.7234 112.757 50.7114 112.982 51.7699C113.206 52.8284 113.17 53.9256 112.875 54.9668C112.207 57.1389 110.938 59.0776 109.215 60.5593C104.209 65.2148 96.0395 67.1986 89.0855 65.4637C87.0212 64.9513 84.8984 64.1315 82.7976 64.6219C81.5093 64.922 80.4259 65.6906 79.2328 66.225C74.6212 68.3039 68.5016 66.4519 65.9543 62.6894C63.4069 58.927 64.1755 53.9054 67.1474 50.2454C69.2775 47.6176 72.5716 45.2239 72.5276 42.0836C72.4837 38.9434 69.0726 36.191 70.2511 33.2338C70.9831 31.3232 73.4939 30.152 74.2405 28.2415C74.9871 26.331 73.7061 24.1862 73.4646 22.1147C73.1352 19.3184 74.8115 16.5881 76.7513 14.2603C79.2035 11.3323 82.4316 8.57267 86.5235 7.78211C90.6153 6.99155 95.5124 8.93868 96.098 12.4376" fill="#263238"/>
<path d="M95.0146 66.4299C95.8415 66.2937 96.6465 66.0475 97.4082 65.6979C98.2869 65.2792 99.0733 64.6894 99.7213 63.9631C100.577 63.0017 101.148 61.8202 101.368 60.552C101.654 59.0149 101.43 57.4268 100.731 56.0282C100.38 55.2596 99.9409 54.4984 99.531 53.6785C99.074 52.8357 98.7598 51.923 98.6014 50.9774C98.4776 49.9566 98.7048 48.9241 99.2455 48.0494C99.8242 47.1787 100.516 46.3886 101.302 45.6997C102.095 45.0187 102.805 44.2473 103.418 43.4012C103.731 42.9876 103.957 42.5151 104.083 42.0119C104.209 41.5088 104.231 40.9854 104.15 40.4732C103.864 39.4549 103.298 38.537 102.518 37.8234C101.786 37.0914 100.973 36.3594 100.285 35.5322C99.5778 34.7302 99.1088 33.7465 98.9308 32.6921C98.8069 31.691 98.8539 30.6762 99.0699 29.6909C99.4725 27.7877 100.051 26.0675 100.285 24.3912C100.56 22.8477 100.573 21.2687 100.322 19.721C100.15 18.6027 99.744 17.5333 99.131 16.5823C98.518 15.6313 97.7115 14.8202 96.764 14.2018C96.0428 13.7797 95.252 13.4897 94.429 13.3453H94.5973C94.7596 13.3526 94.9211 13.3721 95.0804 13.4039C95.7009 13.5165 96.2975 13.7344 96.8446 14.048C97.8417 14.6571 98.6958 15.4738 99.3489 16.4427C100.002 17.4115 100.439 18.5097 100.629 19.6625C100.901 21.2442 100.901 22.8607 100.629 24.4424C100.409 26.1553 99.8311 27.9121 99.4578 29.7714C99.2515 30.7086 99.2094 31.6746 99.3334 32.6262C99.4987 33.6042 99.9378 34.5154 100.6 35.2541C101.259 36.0373 102.064 36.7181 102.796 37.5233C103.639 38.2917 104.246 39.2845 104.545 40.3854C104.642 40.9542 104.623 41.5369 104.488 42.098C104.354 42.6591 104.106 43.1872 103.762 43.6501C103.125 44.5236 102.388 45.3196 101.566 46.0218C100.808 46.6846 100.139 47.4424 99.5749 48.2763C99.0683 49.0747 98.8561 50.0248 98.9747 50.9628C99.2309 52.8148 100.358 54.3373 101.032 55.9184C101.746 57.3831 101.962 59.0411 101.646 60.6398C101.398 61.9586 100.784 63.181 99.875 64.1681C99.1926 64.9019 98.3683 65.4896 97.4521 65.8956C96.875 66.1479 96.2671 66.3227 95.6441 66.4153C95.4318 66.4153 95.2635 66.4519 95.1537 66.4592L95.0146 66.4299Z" fill="#455A64"/>
<path d="M74.5113 26.6384C74.3984 26.2242 74.3249 25.8002 74.2917 25.3721C74.1443 24.2071 74.0905 23.0321 74.1307 21.8585C74.1809 20.0927 74.6156 18.359 75.4044 16.7784C76.4355 14.8735 77.9279 13.2577 79.7451 12.079C83.5954 9.54623 88.1412 9.18756 90.9447 10.3002C92.0842 10.6897 93.0708 11.4303 93.7629 12.4157C93.9393 12.6841 94.0796 12.9745 94.1802 13.2794C94.2254 13.3835 94.2503 13.4954 94.2534 13.6089C94.0628 13.2307 93.8501 12.8641 93.6165 12.5109C92.9063 11.6065 91.9392 10.9379 90.8422 10.593C88.1192 9.59747 83.7199 9.98543 79.9867 12.445C78.2302 13.585 76.78 15.1383 75.763 16.9687C74.9854 18.4933 74.5365 20.1641 74.4454 21.8731C74.3688 23.0333 74.3688 24.1973 74.4454 25.3574C74.5014 25.782 74.5235 26.2104 74.5113 26.6384Z" fill="#455A64"/>
<path d="M92.3501 15.8634C91.6213 15.7822 90.8835 15.8647 90.1907 16.1049C89.2705 16.4915 88.4553 17.0914 87.8126 17.8551C87.1699 18.6187 86.7179 19.5242 86.4941 20.4969C86.1815 21.8394 86.0778 23.2221 86.1866 24.5961C86.2598 26.0601 86.5014 27.6779 86.5673 29.3834C86.7155 31.1845 86.4371 32.9951 85.7548 34.6685C85.0228 36.4326 83.3172 37.655 82.7828 39.4558C82.5626 40.3561 82.6161 41.3017 82.9366 42.1715C83.2147 43.0572 83.6246 43.899 83.9687 44.7628C84.3391 45.6148 84.5643 46.5228 84.6348 47.4492C84.66 48.3468 84.4875 49.2389 84.1297 50.0624C83.4336 51.5145 82.6286 52.9117 81.7214 54.2421C80.9377 55.3738 80.4357 56.6763 80.2574 58.0412C80.1927 59.1717 80.4463 60.2977 80.9894 61.2913C81.3778 62.0699 81.8464 62.8059 82.3876 63.4873C82.8194 64.0509 83.1854 64.4755 83.4197 64.761C83.5522 64.9042 83.6721 65.0585 83.7784 65.2221C83.6246 65.1042 83.4824 64.9718 83.3538 64.8269C83.0976 64.556 82.7096 64.1461 82.2485 63.5971C81.6878 62.9294 81.1972 62.2058 80.7845 61.4377C80.2022 60.4067 79.9254 59.2311 79.9866 58.0486C80.151 56.6282 80.653 55.2678 81.4506 54.0811C82.3332 52.7602 83.1162 51.3753 83.793 49.938C84.1282 49.1678 84.2883 48.3327 84.2615 47.4931C84.1875 46.616 83.9673 45.7575 83.61 44.9531C83.2733 44.1113 82.878 43.2622 82.5632 42.3325C82.2182 41.3819 82.1621 40.3503 82.4022 39.3679C82.7223 38.4283 83.2193 37.5587 83.8662 36.8059C84.4672 36.1113 84.9788 35.344 85.3888 34.5221C86.0531 32.9002 86.3288 31.1455 86.1939 29.3981C86.1354 27.7218 85.9085 26.126 85.8499 24.6181C85.7546 23.2066 85.8806 21.789 86.2232 20.4164C86.4734 19.4135 86.9621 18.4858 87.6478 17.7122C88.3334 16.9386 89.1957 16.342 90.1614 15.9732C90.8277 15.7313 91.5499 15.688 92.2403 15.8488L92.3501 15.8634Z" fill="#455A64"/>
<path d="M113.176 101.346C113.37 101.733 113.534 102.135 113.666 102.547C113.966 103.323 114.398 104.45 114.969 105.812C115.54 107.173 116.294 108.783 117.216 110.511C118.138 112.239 119.295 114.076 120.305 116.118C121.349 118.018 121.996 120.11 122.208 122.267C122.232 123.225 122.029 124.176 121.615 125.041C121.284 125.792 120.882 126.51 120.415 127.186C119.751 128.165 118.991 129.074 118.146 129.902C117.913 130.127 117.669 130.339 117.414 130.539C117.328 130.613 117.232 130.675 117.128 130.722C117.128 130.722 117.465 130.407 118.029 129.799C118.824 128.943 119.544 128.019 120.181 127.04C120.623 126.368 121.003 125.658 121.315 124.917C121.7 124.093 121.883 123.19 121.85 122.282C121.624 120.181 120.985 118.146 119.968 116.294C118.966 114.266 117.809 112.436 116.909 110.679C116.094 109.131 115.361 107.54 114.713 105.914C114.164 104.531 113.776 103.389 113.52 102.598C113.395 102.195 113.3 101.866 113.241 101.676C113.207 101.569 113.185 101.458 113.176 101.346Z" fill="#FF725E"/>
<path d="M149.175 36.4985C149.166 36.563 149.151 36.6266 149.131 36.6888C149.131 36.8352 149.044 37.0109 148.978 37.2378C148.824 37.7429 148.619 38.4383 148.355 39.324L145.984 46.9807C145.728 47.7859 145.479 48.635 145.179 49.5134C144.848 50.433 144.379 51.2969 143.788 52.0754C143.157 52.9022 142.419 53.6408 141.592 54.2714C141.167 54.6008 140.728 54.9156 140.267 55.2157C140.032 55.3749 139.788 55.5191 139.535 55.6476L138.766 55.9843C134.587 57.6386 129.909 59.1539 125.005 60.7643L124.661 60.8741L124.785 60.6325C125.107 61.6866 125.429 62.726 125.744 63.7435L125.795 63.9192L125.62 63.9778L109.157 69.497L109.267 69.3506C109.267 70.5877 109.267 71.7736 109.267 72.8935C109.267 74.0135 109.333 75.0895 109.333 76.0924C109.333 78.1054 109.296 79.8475 109.274 81.2822C109.252 82.717 109.274 83.8369 109.274 84.5982C109.274 84.9569 109.274 85.2497 109.274 85.4693C109.285 85.569 109.285 85.6697 109.274 85.7694C109.251 85.6734 109.239 85.5752 109.237 85.4766C109.237 85.279 109.237 84.9862 109.179 84.5982C109.142 83.8662 109.113 82.7096 109.113 81.2749C109.113 79.8402 109.113 78.098 109.113 76.0997C109.113 75.0968 109.018 74.0427 109.018 72.9081C109.018 71.7735 108.981 70.5877 108.959 69.3506V69.2408L109.069 69.2042L125.517 63.6191L125.393 63.8533C125.078 62.8358 124.763 61.7964 124.441 60.7496L124.382 60.5666L124.565 60.5081L124.902 60.3983C129.799 58.7952 134.491 57.2873 138.642 55.6622L139.374 55.3328C139.612 55.214 139.842 55.0795 140.062 54.9302C140.516 54.6301 140.955 54.33 141.372 54.0079C142.194 53.3992 142.932 52.6855 143.568 51.8851C144.146 51.1349 144.605 50.3005 144.93 49.4109C145.237 48.5545 145.493 47.6981 145.757 46.9002C146.796 43.7013 147.645 41.1101 148.238 39.2801C148.531 38.4017 148.765 37.7136 148.934 37.2158L149.124 36.6741C149.132 36.6134 149.15 36.5542 149.175 36.4985Z" fill="#FF725E"/>
<path d="M153.296 10.7906C153.421 10.7321 155.99 3.56579 156.32 2.89235C156.817 1.86023 156.869 3.44135 156.605 5.38847C156.385 7.03547 156.078 9.46572 156.078 9.46572L153.296 10.7906Z" fill="#B78876"/>
<path d="M104.15 21.4119C104.15 21.4119 104.201 21.595 104.282 21.9536C104.362 22.3123 104.45 22.8467 104.553 23.5421C104.655 24.2375 104.743 25.0793 104.816 26.0675C104.889 27.0557 104.933 28.183 105.08 29.4127C105.186 30.7484 105.64 32.0329 106.397 33.1386C107.239 34.3025 108.425 35.3346 109.53 36.579C110.114 37.2011 110.65 37.8667 111.133 38.57C111.664 39.3129 112.004 40.1753 112.121 41.0808C112.168 41.5663 112.079 42.0552 111.865 42.4936C111.647 42.9146 111.379 43.3078 111.067 43.6648C110.761 43.9982 110.489 44.3611 110.255 44.7481C110.055 45.1343 110.011 45.582 110.13 45.9998C110.548 47.7713 112.195 49.0523 112.656 50.8823C113.121 52.5968 113.026 54.4153 112.385 56.0721C111.831 57.5606 110.965 58.9133 109.845 60.0396C108.857 60.9949 107.747 61.8146 106.544 62.4771C104.8 63.4008 102.971 64.1534 101.083 64.7244C100.417 64.9367 99.8971 65.0904 99.5457 65.1856C99.3682 65.2497 99.184 65.2939 98.9967 65.3173C99.1679 65.2379 99.3439 65.1694 99.5237 65.1124L101.032 64.5853C102.89 63.963 104.69 63.1792 106.412 62.2429C107.584 61.5786 108.662 60.7613 109.618 59.8127C110.694 58.7105 111.524 57.3934 112.056 55.9477C112.656 54.3624 112.74 52.6282 112.297 50.9921C112.019 50.1422 111.603 49.3436 111.067 48.6277C110.471 47.8678 110.026 47.0006 109.757 46.073C109.629 45.5818 109.686 45.0606 109.918 44.609C110.164 44.1977 110.451 43.8126 110.775 43.4598C111.09 43.1638 111.339 42.805 111.507 42.4065C111.675 42.0081 111.757 41.5789 111.748 41.1467C111.638 40.3019 111.321 39.4973 110.826 38.8043C110.357 38.116 109.838 37.4628 109.274 36.8498C108.169 35.7395 107.121 34.5741 106.134 33.3582C105.361 32.2032 104.907 30.8651 104.816 29.4786C104.684 28.2342 104.662 27.1069 104.604 26.1187C104.545 25.1305 104.472 24.2887 104.406 23.5933C104.34 22.8979 104.26 22.3709 104.201 22.0049C104.16 21.8101 104.143 21.6109 104.15 21.4119Z" fill="#FF725E"/>
<path d="M34.5368 11.0908L32.8605 45.6704L47.6688 47.0686L48.4887 38.6725C48.4887 38.6725 53.7078 39.9608 55.2963 35.1296C56.3064 32.0479 57.2141 7.86995 57.2141 7.86995L34.5368 11.0908Z" fill="#FFBE9D"/>
<path d="M58.4805 11.9106C58.8905 15.146 54.3667 17.0346 54.3667 17.0346L53.5469 24.6474C52.8377 24.5969 52.1259 24.5969 51.4167 24.6474C51.8047 21.0533 47.1711 21.756 46.7027 24.2082C46.2342 26.6604 48.8987 28.1317 48.8987 28.1317C47.0467 30.9792 46.2927 32.4725 43.6649 35.1369C40.8247 38.021 39.2729 38.2553 36.3449 38.1674L33.1094 38.0137C33.1094 38.0137 31.9602 35.2541 31.111 28.7246C30.7084 25.5844 28.2563 21.4705 28.9517 16.3685C30.9354 1.86023 44.836 3.39011 44.836 3.39011C52.0975 3.59507 57.4997 4.40027 58.4805 11.9106Z" fill="#263238"/>
<path d="M54.5423 16.7784C56.2342 16.1941 57.7576 15.205 58.9798 13.8973C60.2021 12.5896 61.0861 11.0029 61.5548 9.27539C61.9848 7.95397 61.8904 6.51786 61.2913 5.26404C60.6105 4.07088 58.9928 3.35352 57.785 4.01964C57.7852 3.07081 57.4498 2.15251 56.8379 1.4273C56.2261 0.702095 55.3774 0.216763 54.4421 0.057225C53.5067 -0.102313 52.5451 0.0742272 51.7275 0.555605C50.9099 1.03698 50.2889 1.79214 49.9746 2.68739C49.5059 2.11267 48.8711 1.69667 48.1571 1.49622C47.4431 1.29576 46.6846 1.32063 45.9852 1.56743C45.2928 1.83377 44.6666 2.24726 44.1496 2.77934C43.6327 3.31141 43.2375 3.94938 42.9913 4.64915C42.5077 6.06039 42.3844 7.57013 42.6326 9.04115" fill="#263238"/>
<path d="M28.0439 7.00619C28.0439 6.95495 28.3001 6.83783 28.7759 6.79391C29.3936 6.7495 30.0129 6.85472 30.5812 7.10066C31.1496 7.3466 31.6502 7.72601 32.0407 8.20668C32.3335 8.57268 32.4286 8.85815 32.3847 8.88011C31.8408 8.273 31.1718 7.79107 30.4236 7.46755C29.6755 7.14404 28.8661 6.98663 28.0513 7.00619H28.0439Z" fill="#263238"/>
<path d="M31.8283 5.33724C31.7885 5.86017 31.8106 6.38598 31.8942 6.90371C32.0992 7.74551 32.6921 8.19936 32.6262 8.29452C32.5603 8.38968 32.4066 8.29452 32.1577 8.0676C31.8397 7.7866 31.6128 7.41699 31.5062 7.00619C31.3863 6.60007 31.3863 6.16792 31.5062 5.7618C31.6453 5.45436 31.7844 5.31528 31.8283 5.33724Z" fill="#263238"/>
<path d="M54.2568 20.5482C54.2568 20.5482 54.2568 20.5848 54.147 20.6507C54.0289 20.7471 53.9041 20.8351 53.7737 20.9142C53.2703 21.2194 52.7099 21.4187 52.1267 21.4998C49.9519 21.6753 47.7941 20.998 46.1097 19.6112C45.5245 19.1832 45.0275 18.6464 44.6457 18.0301C44.4292 17.6889 44.2833 17.3077 44.2167 16.9092C44.1501 16.5106 44.164 16.1028 44.2577 15.7097C44.3195 15.251 44.5269 14.8243 44.8495 14.4925C45.1722 14.1606 45.5929 13.9412 46.0496 13.8666C46.5064 13.792 46.975 13.8661 47.3865 14.078C47.798 14.2899 48.1305 14.6284 48.335 15.0436C48.5753 15.4646 48.7202 15.9332 48.7595 16.4164C48.7987 16.8996 48.7312 17.3855 48.5619 17.8398C48.241 18.7704 47.71 19.6145 47.01 20.3066C46.2857 21.0433 45.4073 21.6104 44.4379 21.9673C43.4684 22.3242 42.432 22.462 41.4029 22.3709C40.3705 22.2648 39.3724 21.9404 38.4749 21.4193C37.5786 20.918 36.8387 20.1782 36.3375 19.2818C36.0709 18.8456 35.9149 18.3508 35.883 17.8405C35.8511 17.3302 35.9443 16.8199 36.1545 16.3538C36.393 15.9202 36.7489 15.5625 37.1813 15.3217C37.6136 15.0809 38.1051 14.9668 38.5994 14.9923C38.844 15.0121 39.0817 15.0828 39.2973 15.2001C39.5129 15.3173 39.7015 15.4785 39.8511 15.6731C40.1182 16.0536 40.2683 16.504 40.283 16.9687C40.3017 17.8228 40.0865 18.6657 39.6608 19.4063C38.9178 20.74 37.6917 21.7381 36.235 22.1952C35.035 22.5809 33.7365 22.5238 32.575 22.0341C31.7105 21.68 30.941 21.1285 30.3278 20.4238C29.9429 19.9919 29.6358 19.4965 29.4201 18.9598C29.3573 18.8235 29.3082 18.6812 29.2737 18.5352C29.2737 18.4327 29.2737 18.3815 29.2737 18.3815C29.5576 19.102 29.9637 19.7681 30.4742 20.3506C31.0821 21.0134 31.8331 21.5291 32.6701 21.8585C33.7817 22.297 35.0117 22.3333 36.1471 21.9609C37.518 21.5054 38.6659 20.5484 39.3606 19.2818C39.7514 18.5931 39.9487 17.8116 39.9316 17.0199C39.9184 16.6251 39.7885 16.243 39.5583 15.9219C39.4397 15.7668 39.2897 15.6384 39.1182 15.5451C38.9467 15.4518 38.7574 15.3956 38.5628 15.3803C38.1412 15.3656 37.7238 15.4679 37.3569 15.6759C36.9899 15.8839 36.6878 16.1895 36.4839 16.5588C36.3092 16.9688 36.2352 17.4148 36.2684 17.8593C36.3015 18.3038 36.4406 18.7338 36.6742 19.1135C37.1875 19.9376 37.8892 20.6282 38.7214 21.1283C39.5537 21.6284 40.4928 21.9238 41.4615 21.9902C42.4355 22.0763 43.4165 21.9457 44.334 21.6078C45.2516 21.2699 46.083 20.733 46.7685 20.0358C47.4277 19.3875 47.9287 18.596 48.2325 17.7227C48.3839 17.3196 48.4466 16.8886 48.4163 16.4591C48.3859 16.0296 48.2633 15.6117 48.0568 15.2339C47.8645 14.8832 47.5709 14.5985 47.2145 14.417C46.858 14.2355 46.4552 14.1656 46.0584 14.2164C45.6914 14.3152 45.3596 14.5151 45.1007 14.7933C44.8419 15.0716 44.6664 15.417 44.5944 15.7902C44.5104 16.143 44.4968 16.5089 44.5546 16.8669C44.6124 17.2249 44.7403 17.568 44.9311 17.8764C45.2881 18.463 45.7525 18.9771 46.3 19.3916C47.9315 20.7658 50.0262 21.4649 52.156 21.3461C52.9052 21.2331 53.6216 20.9611 54.2568 20.5482Z" fill="#455A64"/>
<path d="M33.5413 43.3061C33.5413 43.3061 16.105 40.4586 9.12175 60.1421L4.10022 75.5141L18.6743 78.303L17.6422 117.289L62.8066 113.219L60.2007 84.2761L56.7237 83.6978L57.4557 78.0761L74.9432 71.7955C74.9432 71.7955 61.4085 41.359 46.2415 43.8697L33.5413 43.3061Z" fill="#FF725E"/>
<path d="M81.9045 132.983L54.0372 134.352C46.7172 135.253 33.9877 135.282 26.1627 134.696C15.7097 133.913 17.6349 117.377 17.6349 117.377L62.9676 113.124C66.5623 111.873 70.4551 111.761 74.116 112.802C74.116 112.802 72.0664 131.153 81.9045 132.983Z" fill="#263238"/>
<path d="M4.10022 75.5653C4.10022 75.5653 0.0522544 93.1333 0.00101443 95.4903C-0.0721856 98.5574 3.82939 103.842 7.40155 104.56C13.1258 105.709 18.6743 100.71 18.6743 100.71L19.3698 77.1171L4.10022 75.5653Z" fill="#FF725E"/>
<path d="M106.112 96.8885L108.703 97.9499C111.141 98.6819 112.465 99.2309 113.388 98.8795C114.618 98.4184 113.761 97.0861 113.761 97.0861C113.761 97.0861 115.701 97.2252 115.957 96.1272C115.996 95.8959 115.962 95.6581 115.858 95.4478C115.754 95.2375 115.586 95.0653 115.379 94.956C115.379 94.956 117.121 95.0072 117.677 94.5021C118.409 93.8287 117.575 92.9283 117.575 92.9283C120.144 92.5331 120.503 91.2081 120.071 90.8861C119.639 90.564 117.75 90.6226 117.75 90.6226C116.243 90.4396 112.107 90.0077 114.317 88.5583C116.528 87.1089 117.685 85.1692 117.633 84.4225C117.603 84.2533 117.52 84.0977 117.397 83.9775C117.274 83.8573 117.117 83.7784 116.947 83.7519C116.777 83.7253 116.603 83.7523 116.449 83.8292C116.296 83.9061 116.17 84.0291 116.089 84.1809C115.539 84.8819 114.896 85.5049 114.178 86.0329C113.617 86.4796 112.983 86.8263 112.304 87.0577C111.507 87.3286 110.84 87.5262 110.24 87.6799L107.012 88.9243L106.112 96.8885Z" fill="#FFBE9D"/>
<path d="M13.587 68.0843C13.6337 68.1908 13.661 68.3048 13.6675 68.421L13.8212 69.3946L14.341 72.9887C14.7728 76.0777 15.3658 80.2428 16.0099 84.8398C16.6541 89.4367 17.2177 93.675 17.5764 96.7201C17.7594 98.2427 17.8912 99.4724 17.9717 100.329L18.0522 101.31C18.0681 101.426 18.0681 101.545 18.0522 101.661C18.0064 101.552 17.9792 101.435 17.9717 101.317C17.9278 101.054 17.8765 100.731 17.818 100.344C17.6862 99.4358 17.5105 98.2207 17.3056 96.7494C16.8664 93.6604 16.2807 89.4953 15.6293 84.8983C14.9778 80.3014 14.4215 76.0704 14.0628 73.0253C13.8871 71.5027 13.748 70.2656 13.6675 69.4165C13.6675 69.0212 13.609 68.6845 13.587 68.4283C13.5757 68.3139 13.5757 68.1987 13.587 68.0843Z" fill="#263238"/>
<g opacity="0.2">
<path d="M46.6733 61.6134C46.6733 61.6134 46.4757 75.1334 48.3057 83.8881C48.4654 85.1907 48.1595 86.5079 47.4419 87.6067C46.7612 88.6681 45.385 88.9755 44.1479 89.1951L33.3217 91.113C36.6477 93.1131 39.5962 95.6826 42.0325 98.7038C43.3793 100.38 44.5725 102.195 46.0145 103.791C47.4566 105.387 51.0141 107.795 53.1662 107.839C57.2873 107.927 60.0836 102.884 61.5988 101.346L56.7237 83.7783L57.302 78.7422L46.6733 61.6134Z" fill="black"/>
</g>
<g opacity="0.2">
<path d="M13.7699 69.8557C12.9891 74.6674 12.4328 79.5059 12.101 84.3713C11.9033 87.3798 11.7935 90.4469 12.5694 93.3602C13.3454 96.2736 15.1388 99.0552 17.8545 100.358L13.7699 69.8557Z" fill="black"/>
</g>
<path d="M56.7237 83.7491L52.4195 93.0016L23.8715 89.444L22.7881 88.3314C22.327 87.9434 21.7926 87.4749 21.1924 86.8674C20.6802 86.3639 20.257 85.7773 19.9407 85.1326C19.5108 84.3495 19.1952 83.5089 19.0037 82.6364C18.9954 82.4646 18.9338 82.2996 18.8273 82.1644C18.7209 82.0292 18.575 81.9306 18.4098 81.8823C18.2447 81.834 18.0686 81.8384 17.9061 81.8948C17.7436 81.9512 17.6027 82.057 17.5031 82.1972C17.1371 82.8487 17.3494 85.1252 18.7255 87.3212C20.1017 89.5172 16.1855 88.1923 14.7434 87.7165C14.7434 87.7165 13.0525 86.8528 12.5474 86.9845C12.0424 87.1163 11.7789 88.4485 13.9309 89.9125C13.9309 89.9125 12.767 90.3517 13.1623 91.296C13.4551 91.9841 15.0509 92.6868 15.0509 92.6868C14.8171 92.6962 14.5922 92.7791 14.4083 92.9236C14.2243 93.0682 14.0905 93.2671 14.0261 93.492C13.8065 94.6046 15.6219 95.3147 15.6219 95.3147C15.6219 95.3147 14.275 96.1491 15.19 97.0934C15.8707 97.8254 17.2908 97.8986 19.8235 98.2573H20.3872C27.6413 100.409 55.9477 108.33 60.8521 102.254C64.8289 97.4041 67.8471 91.8421 69.7459 85.8646L56.7237 83.7491Z" fill="#B78876"/>
<path d="M52.6684 72.0663C52.6684 72.0663 64.7391 89.8466 69.5044 91.5522C74.2697 93.2577 107.276 99.2089 107.276 99.2089L108.82 87.3871C108.82 87.3871 79.9793 77.9077 78.9765 77.1757C78.2445 76.634 70.0754 62.6528 65.3174 55.8306C60.6619 49.1401 52.0243 43.3061 47.5591 52.1706C47.6103 52.0901 47.5151 52.2584 47.5591 52.1706C42.2887 60.5154 52.6684 72.0663 52.6684 72.0663Z" fill="#FF725E"/>
<path d="M65.9249 56.7383C65.2102 56.4451 64.4765 56.2006 63.7289 56.0063C61.6482 55.5704 59.4975 55.5929 57.4264 56.0721C54.3643 56.8289 51.4364 58.0509 48.7449 59.6956C45.6412 61.4084 42.2593 63.5532 38.2333 64.6658C36.2768 65.235 34.2283 65.4189 32.2017 65.2075C30.3296 64.9444 28.5112 64.386 26.8141 63.5532C23.564 62.0087 20.8922 60.1933 18.4034 59.1612C16.4745 58.2681 14.3863 57.7703 12.262 57.6972C11.4848 57.7093 10.7095 57.7753 9.94153 57.8948C10.6924 57.6603 11.4753 57.5442 12.262 57.5508C14.4178 57.5645 16.5461 58.036 18.5059 58.9343C21.0387 59.9444 23.7397 61.7378 26.9605 63.2458C28.6263 64.0565 30.4102 64.5976 32.2456 64.8488C34.2138 65.0468 36.2017 64.8654 38.1016 64.3145C42.0617 63.2238 45.4216 61.1083 48.5472 59.4028C51.2701 57.7578 54.2341 56.5499 57.3312 55.8233C59.4383 55.3591 61.6233 55.3791 63.7216 55.8818C64.4951 56.0541 65.2381 56.3429 65.9249 56.7383Z" fill="#EBEBEB"/>
<path d="M69.1238 61.5548C68.3432 61.2437 67.5437 60.9821 66.7302 60.7716C64.4812 60.2962 62.1557 60.3161 59.9153 60.8301C57.0678 61.4011 53.8909 62.8505 50.5383 64.7463C47.1858 66.6422 43.5331 68.9114 39.185 70.1119C37.0759 70.7221 34.8686 70.9185 32.6849 70.6902C30.6618 70.4109 28.6969 69.8078 26.8655 68.9041C23.3592 67.2425 20.4751 65.288 17.7813 64.1754C15.7016 63.1988 13.4456 62.6535 11.1494 62.5723C10.3081 62.5872 9.46901 62.663 8.63867 62.7992C9.45166 62.5475 10.2984 62.4216 11.1494 62.4259C13.4766 62.4514 15.7728 62.9625 17.8911 63.9265C20.6215 65.0172 23.5422 66.957 27.0119 68.5893C28.8148 69.4636 30.744 70.049 32.7288 70.3242C34.8671 70.5413 37.0272 70.3424 39.0899 69.7386C43.3648 68.5601 46.9955 66.2835 50.37 64.4389C53.7445 62.5942 56.958 61.1083 59.886 60.5666C62.1598 60.0688 64.5164 60.0888 66.7814 60.6252C67.6029 60.8209 68.3918 61.134 69.1238 61.5548Z" fill="#EBEBEB"/>
<path d="M52.4561 47.3907C51.8865 47.5016 51.3261 47.6558 50.7799 47.8518C49.3296 48.487 48.114 49.5593 47.3029 50.9189C46.7197 51.8341 46.3102 52.8491 46.0951 53.9128C45.8508 55.1346 45.8063 56.3879 45.9633 57.624C46.1301 58.9968 46.4392 60.3485 46.8856 61.6573C47.3528 63.0707 47.9279 64.446 48.6058 65.7712C49.9754 68.3049 51.5035 70.7498 53.1808 73.0912C54.7107 75.2872 56.1601 77.1831 57.3898 78.7788C58.6196 80.3746 59.659 81.6336 60.3764 82.5047L61.1962 83.5075C61.3021 83.6172 61.3931 83.7403 61.4671 83.8735C61.3512 83.7777 61.2435 83.6724 61.145 83.5588C60.9327 83.3465 60.6326 83.0244 60.2593 82.5999C59.5273 81.7581 58.4439 80.521 57.1776 78.9399C55.9112 77.3587 54.4472 75.4629 52.8954 73.2888C51.1895 70.9384 49.6439 68.4757 48.2691 65.9176C47.58 64.578 46.9998 63.1852 46.5343 61.7525C46.079 60.4186 45.7698 59.0392 45.612 57.6387C45.4666 56.3665 45.5234 55.0793 45.7803 53.8249C46.0219 52.7299 46.4609 51.6881 47.076 50.7505C47.9326 49.363 49.2172 48.2917 50.736 47.6981C51.2849 47.4883 51.8685 47.384 52.4561 47.3907Z" fill="#263238"/>
</svg>
