<svg width="110" height="159" viewBox="0 0 110 159" fill="none" xmlns="http://www.w3.org/2000/svg">
<path d="M38.9821 40.5503L35.9287 48.6748L17.5082 56.7992L18.3402 60.2936C18.3402 60.2936 38.4746 57.5231 39.9722 55.9048C41.4698 54.2866 46.4285 43.0088 46.4285 43.0088L38.9821 40.5503Z" fill="#E9B376"/>
<path opacity="0.3" d="M38.2333 42.5429L37.7507 43.82L43.5664 46.1538L44.2695 47.8428L44.7562 46.7903L44.5315 44.0155L38.2333 42.5429Z" fill="black"/>
<path d="M21.6724 55.9132C21.6724 55.9132 20.9694 54.3948 19.6632 53.933C18.3569 53.4712 17.4417 52.7599 16.4475 52.4853C15.4532 52.2108 16.227 53.3672 16.7636 53.8997C17.3003 54.4322 17.8993 55.0396 17.4334 55.3807C16.9675 55.7218 12.0545 56.2252 11.4721 56.7826C10.8897 57.34 11.7009 57.4856 11.7009 57.4856C11.7009 57.4856 10.5112 57.6479 10.4529 58.1346C10.4529 58.2636 10.6027 58.5839 11.156 58.5964C12.404 58.6255 15.0164 58.5464 15.0164 58.5464C14.8667 58.5464 11.6427 58.8751 11.1684 58.9874C10.5444 59.133 10.3364 59.5199 10.4238 59.8776C10.5611 60.3893 14.5838 60.1189 14.746 60.2271C14.746 60.2271 12.4331 60.302 12.1252 60.9093C11.8174 61.5167 13.2776 61.55 14.5713 61.3253C15.7528 61.1256 18.1281 61.0466 19.3137 60.7263C20.7739 60.3103 21.6641 59.7404 21.8929 58.3426C22.0287 57.5273 21.9528 56.6907 21.6724 55.9132Z" fill="#E9B376"/>
<path opacity="0.3" d="M11.8465 57.4732C11.8352 57.4699 11.8252 57.4631 11.8182 57.4537C11.8111 57.4443 11.8073 57.4329 11.8073 57.4212C11.8073 57.4094 11.8111 57.398 11.8182 57.3886C11.8252 57.3792 11.8352 57.3724 11.8465 57.3692C12.8033 57.2652 13.7767 57.2028 14.7335 57.1861C14.7404 57.1855 14.7474 57.1864 14.7539 57.1887C14.7604 57.1909 14.7665 57.1945 14.7715 57.1992C14.7766 57.2039 14.7807 57.2096 14.7834 57.2159C14.7862 57.2223 14.7876 57.2291 14.7876 57.236C14.7876 57.2504 14.7819 57.2641 14.7718 57.2743C14.7616 57.2844 14.7479 57.2901 14.7335 57.2901C13.7809 57.2901 12.8116 57.3692 11.859 57.4732H11.8465Z" fill="black"/>
<path opacity="0.3" d="M15.632 60.277C15.6224 60.2771 15.613 60.2743 15.6048 60.2692C15.5967 60.264 15.5903 60.2566 15.5863 60.2479C15.1286 59.0705 15.0245 57.7853 15.2867 56.5496C15.2884 56.5431 15.2913 56.5369 15.2953 56.5315C15.2993 56.526 15.3044 56.5215 15.3102 56.518C15.316 56.5145 15.3224 56.5122 15.3291 56.5112C15.3358 56.5102 15.3426 56.5105 15.3491 56.5122C15.3557 56.5138 15.3619 56.5167 15.3673 56.5208C15.3727 56.5248 15.3773 56.5298 15.3808 56.5356C15.3843 56.5414 15.3866 56.5478 15.3876 56.5545C15.3886 56.5612 15.3882 56.568 15.3866 56.5746C15.1293 57.7881 15.2319 59.0503 15.6819 60.2063C15.6875 60.2195 15.6875 60.2344 15.682 60.2477C15.6793 60.2542 15.6754 60.2602 15.6703 60.2652C15.6653 60.2703 15.6594 60.2743 15.6528 60.277H15.632Z" fill="black"/>
<path opacity="0.3" d="M19.9834 57.5272C19.4866 57.5304 19.0028 57.3688 18.6076 57.0677C18.2124 56.7666 17.9282 56.3431 17.7994 55.8632C17.7968 55.85 17.7991 55.8363 17.806 55.8248C17.813 55.8133 17.8239 55.8047 17.8368 55.8008C17.8501 55.7968 17.8644 55.798 17.8767 55.8042C17.8891 55.8104 17.8987 55.8211 17.9034 55.8341C18.0294 56.3173 18.3205 56.7411 18.7262 57.0321C19.132 57.3231 19.6268 57.463 20.1248 57.4274C20.1389 57.4272 20.1526 57.4322 20.1633 57.4414C20.174 57.4506 20.1811 57.4633 20.1831 57.4773C20.1836 57.4842 20.1828 57.4912 20.1805 57.4977C20.1783 57.5042 20.1747 57.5102 20.17 57.5153C20.1653 57.5204 20.1596 57.5245 20.1533 57.5272C20.1469 57.53 20.1401 57.5314 20.1332 57.5314L19.9834 57.5272Z" fill="black"/>
<path d="M25.6826 33.6946C25.6826 33.6946 29.1853 33.6946 30.2794 37.9295C31.3735 42.1644 31.153 58.222 31.7104 60.5973C32.2679 62.9727 36.9354 80.661 37.9962 89.2098C37.9962 89.2098 33.0458 89.6258 32.5882 89.5468C32.1306 89.4677 24.7383 54.6568 24.7383 54.6568L25.6826 33.6946Z" fill="#407BFF"/>
<g opacity="0.3">
<path d="M25.6826 33.6946C25.6826 33.6946 29.1853 33.6946 30.2794 37.9295C31.3735 42.1644 31.153 58.222 31.7104 60.5973C32.2679 62.9727 36.9354 80.661 37.9962 89.2098C37.9962 89.2098 33.0458 89.6258 32.5882 89.5468C32.1306 89.4677 24.7383 54.6568 24.7383 54.6568L25.6826 33.6946Z" fill="black"/>
</g>
<path d="M32.6465 41.3906C35.1133 46.3826 39.0404 51.6616 39.0404 51.6616C40.2884 51.4703 48.65 48.0549 48.65 48.0549L49.5693 51.6242C47.8582 53.3087 46.0027 54.8399 44.0241 56.2002C38.9821 59.5282 37.1226 59.2994 34.5517 56.6162C31.9809 53.933 26.7393 44.0447 26.7393 44.0447L28.5697 35.0757L28.1121 34.5557C30.8868 35.7621 31.4401 38.9903 32.6465 41.3906Z" fill="#407BFF"/>
<g opacity="0.3">
<path d="M32.6465 41.3906C35.1133 46.3826 39.0404 51.6616 39.0404 51.6616C40.2884 51.4703 48.65 48.0549 48.65 48.0549L49.5693 51.6242C47.8582 53.3087 46.0027 54.8399 44.0241 56.2002C38.9821 59.5282 37.1226 59.2994 34.5517 56.6162C31.9809 53.933 26.7393 44.0447 26.7393 44.0447L28.5697 35.0757L28.1121 34.5557C30.8868 35.7621 31.4401 38.9903 32.6465 41.3906Z" fill="black"/>
</g>
<path opacity="0.3" d="M31.257 51.932C31.257 51.932 31.673 47.614 31.257 45.2136C30.841 42.8133 30.3876 40.5503 30.3876 40.5503C30.3876 40.5503 31.9767 44.182 32.1556 46.8319C32.3345 49.4818 32.2221 53.4879 32.2221 53.4879L31.257 51.932Z" fill="black"/>
<path opacity="0.3" d="M43.9408 49.9352C43.9075 49.9352 44.6272 55.7884 44.6272 55.7884L45.8128 54.9106L45.0515 49.5026L43.9408 49.9352Z" fill="black"/>
<path d="M3.51819 153.116L8.00267 153.553L10.4529 142.1L3.51819 141.451V153.116Z" fill="#E9B376"/>
<path d="M8.65568 151.726H7.05409C6.87477 151.729 6.69859 151.774 6.53967 151.857C6.38074 151.94 6.24347 152.059 6.13888 152.205C5.21536 153.453 4.52481 152.987 3.51809 151.789C2.87745 151.714 2.70688 152.45 2.65696 152.646L1.45888 157.001C1.41267 157.174 1.43602 157.358 1.52393 157.513C1.61183 157.669 1.75726 157.784 1.92896 157.833C1.99358 157.853 2.06097 157.863 2.12864 157.862H14.8C16.8176 157.862 17.2378 155.828 16.4058 155.641C12.6618 154.809 10.0202 153.715 8.86368 152.625C8.66816 152.458 8.88448 152.321 8.65568 151.726Z" fill="#407BFF"/>
<path opacity="0.3" d="M8.65568 151.726H7.05409C6.87477 151.729 6.69859 151.774 6.53967 151.857C6.38074 151.94 6.24347 152.059 6.13888 152.205C5.21536 153.453 4.52481 152.987 3.51809 151.789C2.87745 151.714 2.70688 152.45 2.65696 152.646L1.45888 157.001C1.41267 157.174 1.43602 157.358 1.52393 157.513C1.61183 157.669 1.75726 157.784 1.92896 157.833C1.99358 157.853 2.06097 157.863 2.12864 157.862H14.8C16.8176 157.862 17.2378 155.828 16.4058 155.641C12.6618 154.809 10.0202 153.715 8.86368 152.625C8.66816 152.458 8.88448 152.321 8.65568 151.726Z" fill="black"/>
<path d="M12.1294 152.966C12.2124 152.906 12.2801 152.827 12.3271 152.736C12.3741 152.645 12.399 152.544 12.3998 152.442C12.4079 152.388 12.4 152.333 12.3771 152.283C12.3542 152.234 12.3172 152.192 12.2708 152.163C11.7674 151.805 9.77479 152.741 9.54183 152.849C9.52971 152.854 9.51869 152.862 9.50941 152.871C9.50013 152.88 9.49277 152.891 9.48775 152.904C9.47967 152.926 9.48081 152.951 9.49093 152.973C9.50105 152.995 9.51933 153.012 9.54183 153.02C10.0344 153.136 10.5377 153.2 11.0436 153.211C11.4224 153.248 11.803 153.162 12.1294 152.966ZM12.1294 152.313C12.1497 152.325 12.1656 152.343 12.1746 152.365C12.1836 152.387 12.1852 152.411 12.1793 152.433C12.1751 152.507 12.1555 152.58 12.1218 152.645C12.0882 152.711 12.0411 152.769 11.9838 152.816C11.5262 153.153 10.4279 153.008 9.8372 152.899C10.6858 152.533 11.8881 152.121 12.146 152.321L12.1294 152.313Z" fill="#263238"/>
<path d="M9.60838 153.041C10.2116 152.787 11.4721 151.793 11.4013 151.277C11.4013 151.169 11.314 151.036 11.0436 151.002C9.94534 150.873 9.4711 152.845 9.4711 152.929C9.46666 152.946 9.46702 152.964 9.47216 152.98C9.4773 152.997 9.48701 153.012 9.50022 153.024H9.56262L9.60838 153.041ZM11.0061 151.165C11.21 151.165 11.21 151.256 11.21 151.281C11.2682 151.601 10.353 152.421 9.6999 152.766C9.83302 152.309 10.2365 151.156 10.9479 151.156L11.0061 151.165Z" fill="#263238"/>
<path d="M8.06505 153.944C8.04744 153.949 8.02858 153.949 8.01097 153.944C7.98806 153.929 7.97175 153.906 7.96553 153.88C7.95931 153.853 7.96368 153.825 7.97769 153.802C8.13638 153.554 8.34675 153.343 8.59444 153.184C8.84213 153.024 9.12131 152.92 9.41289 152.879C9.43988 152.875 9.46719 152.882 9.48897 152.898C9.51075 152.915 9.52525 152.939 9.52937 152.966C9.53173 152.979 9.53131 152.993 9.52813 153.006C9.52495 153.02 9.51909 153.032 9.51091 153.043C9.50272 153.054 9.49238 153.063 9.48053 153.07C9.46868 153.077 9.45557 153.081 9.44201 153.082C9.1803 153.12 8.92982 153.214 8.70788 153.357C8.48595 153.501 8.29784 153.691 8.15657 153.914C8.14478 153.926 8.1303 153.935 8.11437 153.94C8.09844 153.945 8.08152 153.946 8.06505 153.944Z" fill="#263238"/>
<path d="M9.01772 154.609C9.00019 154.615 8.98116 154.615 8.96364 154.609C8.95186 154.602 8.9416 154.593 8.93349 154.582C8.92538 154.571 8.91959 154.559 8.91647 154.546C8.91336 154.532 8.91298 154.519 8.91537 154.505C8.91776 154.492 8.92285 154.479 8.93035 154.468C9.0882 154.219 9.29835 154.007 9.54619 153.848C9.79403 153.688 10.0736 153.585 10.3656 153.544C10.3925 153.541 10.4199 153.548 10.4416 153.564C10.4634 153.58 10.4779 153.605 10.482 153.632C10.4856 153.66 10.478 153.688 10.4609 153.711C10.4438 153.733 10.4185 153.748 10.3905 153.752C10.1288 153.79 9.87832 153.883 9.65639 154.027C9.43445 154.171 9.24635 154.361 9.10507 154.584C9.09319 154.594 9.07923 154.602 9.06414 154.606C9.04906 154.611 9.03322 154.612 9.01772 154.609Z" fill="#263238"/>
<path d="M10.378 155.279C10.3602 155.283 10.3417 155.283 10.3239 155.279C10.312 155.272 10.3016 155.262 10.2935 155.251C10.2853 155.24 10.2795 155.227 10.2764 155.213C10.2733 155.2 10.273 155.186 10.2754 155.172C10.2778 155.158 10.283 155.145 10.2906 155.133C10.4484 154.884 10.6586 154.673 10.9064 154.513C11.1543 154.354 11.4339 154.25 11.7258 154.21C11.7528 154.206 11.7801 154.213 11.8019 154.23C11.8237 154.246 11.8382 154.27 11.8423 154.297C11.8446 154.311 11.8441 154.325 11.8407 154.339C11.8372 154.352 11.831 154.365 11.8224 154.376C11.8138 154.387 11.8029 154.396 11.7906 154.402C11.7783 154.409 11.7647 154.413 11.7508 154.414C11.4895 154.452 11.2395 154.547 11.0178 154.69C10.796 154.834 10.6076 155.023 10.4653 155.246C10.4542 155.257 10.4405 155.266 10.4254 155.272C10.4103 155.278 10.3941 155.28 10.378 155.279Z" fill="#263238"/>
<path d="M25.2583 152.766L29.7428 153.207L31.8228 141.713L25.4497 141.018L25.2583 152.766Z" fill="#E9B376"/>
<path d="M30.3959 151.381H28.7943C28.6153 151.383 28.4392 151.427 28.2803 151.509C28.1213 151.592 27.9839 151.71 27.8791 151.855C26.9556 153.103 26.265 152.641 25.2583 151.439C24.6218 151.364 24.4471 152.097 24.3972 152.292L23.1991 156.648C23.1529 156.82 23.1763 157.004 23.2642 157.16C23.3521 157.315 23.4975 157.43 23.6692 157.48C23.734 157.498 23.8014 157.507 23.8689 157.505H36.5569C38.5745 157.505 38.9946 155.47 38.1626 155.283C34.4186 154.451 31.777 153.357 30.6206 152.271C30.4084 152.113 30.6289 151.972 30.3959 151.381Z" fill="#407BFF"/>
<path d="M33.8696 152.621C33.9523 152.56 34.0199 152.482 34.0669 152.391C34.1138 152.3 34.1388 152.199 34.14 152.097C34.1479 152.042 34.14 151.986 34.1171 151.936C34.0942 151.886 34.0574 151.843 34.011 151.814C33.5076 151.46 31.515 152.396 31.282 152.504C31.2644 152.51 31.249 152.521 31.2381 152.536C31.2272 152.551 31.2213 152.569 31.2213 152.587C31.2213 152.606 31.2272 152.624 31.2381 152.639C31.249 152.654 31.2644 152.665 31.282 152.671C31.7745 152.788 32.2778 152.853 32.7838 152.866C33.1625 152.9 33.5424 152.815 33.8696 152.621ZM33.8696 151.968C33.8895 151.979 33.9053 151.996 33.9143 152.017C33.9233 152.038 33.9252 152.062 33.9195 152.084C33.9158 152.158 33.8964 152.23 33.8627 152.296C33.829 152.362 33.7817 152.42 33.724 152.467C33.2664 152.808 32.1681 152.662 31.5774 152.55C32.426 152.184 33.6075 151.772 33.8862 151.968H33.8696Z" fill="#263238"/>
<path d="M31.3485 152.691C31.9517 152.442 33.2122 151.443 33.1415 150.932C33.1415 150.819 33.0541 150.69 32.7837 150.653C31.6855 150.528 31.2154 152.5 31.2154 152.583C31.2091 152.599 31.2081 152.617 31.2126 152.633C31.2171 152.65 31.2269 152.664 31.2404 152.675C31.2502 152.679 31.2608 152.681 31.2716 152.681C31.2823 152.681 31.2929 152.679 31.3028 152.675L31.3485 152.691ZM32.7463 150.815C32.9501 150.836 32.9501 150.911 32.9501 150.936C33.0084 151.256 32.0932 152.076 31.44 152.421C31.5732 151.959 31.9767 150.811 32.688 150.811L32.7463 150.815Z" fill="#263238"/>
<path d="M30.1463 153.598C30.1285 153.603 30.11 153.603 30.0922 153.598C30.0803 153.591 30.0699 153.582 30.0618 153.57C30.0536 153.559 30.0478 153.546 30.0447 153.533C30.0416 153.519 30.0413 153.505 30.0437 153.491C30.0462 153.477 30.0513 153.464 30.0589 153.453C30.2163 153.204 30.4258 152.993 30.6729 152.834C30.92 152.674 31.1988 152.57 31.4899 152.529C31.5178 152.527 31.5457 152.535 31.568 152.552C31.5903 152.568 31.6055 152.593 31.6106 152.621C31.613 152.648 31.6049 152.675 31.5879 152.697C31.5709 152.719 31.5463 152.733 31.5191 152.737C31.2575 152.775 31.0073 152.869 30.7854 153.013C30.5635 153.156 30.3753 153.346 30.2336 153.569C30.2223 153.58 30.2085 153.589 30.1934 153.594C30.1782 153.599 30.1621 153.6 30.1463 153.598Z" fill="#263238"/>
<path d="M31.1406 154.347C31.1227 154.351 31.1043 154.351 31.0865 154.347C31.0633 154.332 31.0469 154.308 31.0407 154.281C31.0345 154.254 31.039 154.225 31.0532 154.201C31.2123 153.954 31.4228 153.743 31.6704 153.584C31.918 153.424 32.197 153.32 32.4884 153.278C32.5158 153.276 32.5431 153.284 32.5648 153.301C32.5864 153.318 32.6008 153.342 32.6049 153.369C32.6066 153.383 32.6056 153.397 32.602 153.41C32.5983 153.424 32.592 153.436 32.5835 153.447C32.575 153.458 32.5644 153.467 32.5524 153.473C32.5403 153.48 32.5271 153.484 32.5134 153.486C32.2517 153.523 32.0012 153.617 31.7792 153.761C31.5573 153.904 31.3692 154.094 31.2279 154.318C31.2168 154.329 31.203 154.338 31.1878 154.343C31.1726 154.348 31.1564 154.35 31.1406 154.347Z" fill="#263238"/>
<path d="M32.3802 154.975C32.3612 154.981 32.341 154.981 32.322 154.975C32.3106 154.968 32.3007 154.959 32.293 154.948C32.2853 154.937 32.2799 154.924 32.2772 154.911C32.2745 154.898 32.2745 154.884 32.2772 154.871C32.2799 154.857 32.2852 154.845 32.2929 154.834C32.4503 154.585 32.6598 154.374 32.9069 154.215C33.154 154.055 33.4327 153.951 33.7239 153.91C33.7376 153.908 33.7516 153.908 33.7651 153.911C33.7787 153.915 33.7914 153.92 33.8027 153.929C33.8139 153.937 33.8234 153.947 33.8306 153.959C33.8378 153.971 33.8425 153.984 33.8446 153.998C33.847 154.025 33.8389 154.052 33.8219 154.074C33.8049 154.096 33.7803 154.11 33.753 154.114C33.4918 154.153 33.2418 154.247 33.0201 154.391C32.7983 154.534 32.6099 154.724 32.4676 154.946C32.4563 154.957 32.4425 154.966 32.4273 154.971C32.4122 154.976 32.3961 154.977 32.3802 154.975Z" fill="#263238"/>
<path d="M32.4718 67.9064C32.7963 68.8674 36.4196 99.5474 36.378 106.178C36.3447 111.537 32.3803 148.61 32.3803 148.61H23.6443C23.6443 148.61 24.7841 129.562 24.5553 123.368C24.3265 117.173 25.8033 105.538 25.8033 105.538L16.4641 77.5992L16.8135 68.2268L32.4718 67.9064Z" fill="#263238"/>
<path d="M4.57065 109.128C4.77865 108.233 5.10313 106.42 5.50665 104.024H5.46921C5.76457 100.854 4.74953 84.4466 5.74793 75.0783C6.52169 69.1087 7.94441 65.9263 9.49193 63.9586L9.70825 63.6799C9.96617 63.3637 10.1242 63.189 10.1242 63.189C10.4154 63.2597 10.7067 63.3304 10.9937 63.3928L11.3182 63.4594C22.1633 65.7308 30.8327 62.7605 30.8327 62.7605C31.8311 65.2232 32.8878 71.0597 33.6158 76.5135C32.4801 77.7615 28.0663 78.9138 22.3547 79.9829L20.7281 87.3503C19.8711 91.9263 18.7687 96.3941 17.8161 100.429L16.8427 104.847C16.7803 105.134 16.722 105.421 16.6679 105.704C16.1729 108.225 10.6401 148.789 10.6401 148.789L2.66953 148.606C2.66953 148.606 1.79177 121.233 4.57065 109.128Z" fill="#263238"/>
<path opacity="0.3" d="M30.3959 151.381H28.7943C28.6153 151.383 28.4392 151.427 28.2803 151.509C28.1213 151.592 27.9839 151.71 27.8791 151.855C26.9556 153.103 26.265 152.641 25.2583 151.439C24.6218 151.364 24.4471 152.097 24.3972 152.292L23.1991 156.648C23.1529 156.82 23.1763 157.004 23.2642 157.16C23.3521 157.315 23.4975 157.43 23.6692 157.48C23.734 157.498 23.8014 157.507 23.8689 157.505H36.5569C38.5745 157.505 38.9946 155.47 38.1626 155.283C34.4186 154.451 31.777 153.357 30.6206 152.271C30.4084 152.113 30.6289 151.972 30.3959 151.381Z" fill="black"/>
<path d="M6.82949 46.5615L5.65637 36.1615C7.46597 33.4616 14.7335 32.0264 14.7335 32.0264L20.6324 32.3509C20.6324 32.3509 23.7524 33.0872 25.6951 33.7195C26.604 34.9934 27.3647 36.3667 27.9623 37.813C27.9623 37.813 30.816 43.9157 30.3709 48.213C30.1837 50.0184 29.7761 56.8991 30.2794 59.9983L32.9543 68.2101C22.1757 76.605 8.88453 67.8315 8.88453 67.8315C9.36709 66.3464 10.432 63.0642 10.6525 61.6165C10.4944 59.7653 9.97445 58.5547 9.19237 55.3141C9.04261 54.6776 7.09157 47.1688 6.82949 46.5615Z" fill="#407BFF"/>
<path d="M19.6299 55.6885L21.8014 55.4972L22.6667 58.5631L20.4868 59.3119L19.6299 55.6885Z" fill="#E9B376"/>
<path d="M21.1607 55.3349C21.1607 55.3349 21.4852 53.829 22.5584 53.1509C23.6317 52.4728 24.314 51.645 25.146 51.1957C25.978 50.7464 26.1152 51.6824 25.745 52.269C25.3748 52.8556 24.368 53.7832 24.8548 53.9912C25.3415 54.1992 29.8468 53.6668 30.4957 54.0328C31.1447 54.3989 30.4333 54.7109 30.4333 54.7109C30.4333 54.7109 31.4484 54.5986 31.6813 55.0354C31.9143 55.4722 31.3111 55.7343 31.3111 55.7343C31.3111 55.7343 31.9933 55.6802 31.9767 56.1503C31.96 56.6204 27.929 57.4856 27.7917 57.6146C27.7917 57.6146 30.1338 56.7826 30.5332 57.2693C30.9325 57.756 29.6554 58.2802 28.6445 58.7253C27.5378 59.157 26.345 59.3223 25.1626 59.2079C23.7607 59.0831 21.8096 59.2495 21.3188 58.0389C21.0331 57.1664 20.9787 56.2348 21.1607 55.3349Z" fill="#E9B376"/>
<path d="M12.8241 46.8319C12.3498 41.3324 11.2682 32.6879 8.9844 33.7237C7.52424 34.3768 6.60488 34.822 5.85192 35.4668C5.35688 35.8828 5.27368 36.8936 4.94088 37.9628C4.01736 40.9496 5.6564 62.1989 5.6564 62.1989L0.414795 91.7682L11.0561 93.1618C11.0561 93.1618 13.3025 52.3356 12.8241 46.8319Z" fill="#407BFF"/>
<path opacity="0.3" d="M12.8241 46.8319C12.3499 41.3324 11.2683 32.6879 8.98442 33.7237C7.52426 34.3768 6.6049 34.822 5.85194 35.4668C5.3569 35.8828 5.2737 36.8936 4.9409 37.9628C4.01738 40.9496 5.73962 61.7954 5.73962 61.7954L0.406494 91.814L11.0561 93.1618C11.0561 93.1618 13.3025 52.3356 12.8241 46.8319Z" fill="black"/>
<path opacity="0.3" d="M7.85706 58.1013C7.85706 58.1013 9.62922 47.7803 9.52106 42.9922L6.16394 55.8882L7.85706 58.1013Z" fill="black"/>
<path opacity="0.3" d="M5.02405 62.0076C5.50077 62.6011 6.10695 63.0778 6.79621 63.4012C8.24389 64.0044 12.5328 62.694 12.5328 62.694L12.5911 60.8636L5.02405 62.0076Z" fill="black"/>
<path d="M9.5127 42.9922C9.24646 42.9922 7.37862 54.998 7.37862 54.998L20.5908 54.7026L21.3313 60.0232C21.3313 60.0232 15.5489 61.4293 9.15078 62.4735C2.55302 63.5468 0.0819816 60.6264 0.0528616 56.1503C0.0237416 52.0444 1.71686 42.0728 1.71686 42.0728C2.57382 38.1458 4.25862 36.6981 6.3303 35.0882L9.5127 42.9922Z" fill="#407BFF"/>
<path opacity="0.3" d="M9.5127 42.9922C9.24646 42.9922 7.37862 54.998 7.37862 54.998L20.5908 54.7026L21.3313 60.0232C21.3313 60.0232 15.5489 61.4293 9.15078 62.4735C2.55302 63.5468 0.0819816 60.6264 0.0528616 56.1503C0.0237416 52.0444 1.71686 42.0728 1.71686 42.0728C2.57382 38.1458 4.25862 36.6981 6.3303 35.0882L9.5127 42.9922Z" fill="black"/>
<path d="M13.107 11.8588C13.107 11.8588 14.6795 9.51252 18.8561 9.20468C23.0327 8.89684 27.7127 10.1074 29.9758 15.8357L28.1495 16.2933C29.3678 20.6054 29.9012 25.082 29.7303 29.5596C29.7303 29.5596 16.9259 31.2735 8.6433 29.8466C8.60853 25.9577 8.89796 22.0727 9.50858 18.2319C10.5361 11.4802 13.107 11.8588 13.107 11.8588Z" fill="#263238"/>
<path d="M13.4189 32.6088C13.4189 32.6088 15.2993 33.94 17.7329 35.8744C18.2412 36.2774 18.7922 36.6234 19.3761 36.9061C20.9527 37.6632 22.3754 38.0751 22.7249 37.3221C22.8043 37.1519 22.8643 36.9733 22.9037 36.7896C23.1783 35.5416 22.9745 33.7861 21.9386 33.0248C20.7697 32.1679 20.1914 31.4149 20.3495 30.1836C20.451 29.4546 20.641 28.7408 20.9153 28.0578L19.5757 27.3215L14.721 22.7912C15.37 25.6575 15.8109 30.8034 13.4189 32.6088Z" fill="#E9B376"/>
<path opacity="0.2" d="M20.3204 30.4332C19.0059 29.7218 17.5457 28.4572 17.6539 26.9388C17.6895 26.3823 17.7914 25.832 17.9575 25.2997L20.699 28.6485C20.5119 29.2288 20.385 29.8269 20.3204 30.4332Z" fill="black"/>
<path d="M13.6062 17.5122C14.2343 22.292 14.4007 24.3221 16.9758 26.7391C20.8487 30.3791 26.5438 28.8815 27.3258 24.085C28.0455 19.7711 26.9098 12.6783 22.1092 10.8479C17.3918 9.04244 12.978 12.7324 13.6062 17.5122Z" fill="#E9B376"/>
<path d="M20.1332 18.8309C20.179 19.3343 20.4702 19.742 20.7863 19.7378C21.1025 19.7336 21.323 19.3218 21.2772 18.8101C21.2315 18.2984 20.9444 17.8949 20.6282 17.9032C20.3121 17.9116 20.0916 18.3234 20.1332 18.8309Z" fill="#263238"/>
<path d="M25.0087 18.6146C25.0503 19.1055 25.3415 19.4965 25.6577 19.4924C25.9738 19.4882 26.1901 19.0764 26.1485 18.5896C26.1069 18.1029 25.8157 17.7077 25.4996 17.7119C25.1834 17.716 24.9629 18.1237 25.0087 18.6146Z" fill="#263238"/>
<path d="M18.8144 17.1212C18.845 17.1231 18.8756 17.1186 18.9043 17.1078C18.933 17.0971 18.9591 17.0803 18.9808 17.0588C19.1803 16.853 19.4273 16.6995 19.7 16.6117C19.9728 16.524 20.263 16.5046 20.545 16.5554C20.574 16.5634 20.6043 16.5652 20.6341 16.5608C20.6639 16.5564 20.6924 16.5459 20.7178 16.5298C20.7433 16.5138 20.7651 16.4926 20.7819 16.4676C20.7987 16.4426 20.8101 16.4145 20.8154 16.3848C20.8247 16.3224 20.8109 16.2586 20.7763 16.2057C20.7418 16.1528 20.6891 16.1144 20.6282 16.0978C20.2727 16.024 19.9043 16.0413 19.5573 16.1482C19.2104 16.2552 18.8961 16.4482 18.6439 16.7093C18.6009 16.7549 18.5769 16.8152 18.5769 16.8778C18.5769 16.9404 18.6009 17.0007 18.6439 17.0463C18.6892 17.092 18.7501 17.1187 18.8144 17.1212Z" fill="#263238"/>
<path d="M26.1111 16.1602C26.1353 16.1499 26.1571 16.1345 26.1751 16.1151C26.193 16.0958 26.2066 16.0729 26.2151 16.0479C26.2324 15.9902 26.229 15.9282 26.2055 15.8727C26.1819 15.8172 26.1397 15.7718 26.0861 15.7442C25.7923 15.5696 25.4587 15.4734 25.1171 15.4646C24.7755 15.4559 24.4374 15.535 24.1351 15.6943C24.0912 15.7321 24.0627 15.7847 24.055 15.8421C24.0472 15.8995 24.0608 15.9577 24.093 16.0058C24.1252 16.0539 24.174 16.0886 24.23 16.1032C24.286 16.1178 24.3455 16.1115 24.3971 16.0853C24.6386 15.9645 24.9065 15.9065 25.1763 15.9167C25.446 15.9269 25.7089 16.0049 25.9405 16.1436C25.9929 16.1714 26.0542 16.1774 26.1111 16.1602Z" fill="#263238"/>
<path d="M23.3156 18.444C23.7884 19.4511 24.3626 20.4073 25.0295 21.2978C25.0645 21.3434 25.0885 21.3964 25.0997 21.4528C25.111 21.5091 25.1091 21.5673 25.0942 21.6228C25.0793 21.6783 25.0518 21.7297 25.0139 21.7728C24.976 21.816 24.9287 21.8499 24.8756 21.8719C24.4632 22.0134 24.0197 22.0379 23.5943 21.9426L23.3156 18.444Z" fill="#D58745"/>
<path d="M20.4493 17.9282L21.5393 17.6245C21.5393 17.6245 20.9693 18.469 20.4493 17.9282Z" fill="#263238"/>
<path d="M25.3333 17.7368L26.4232 17.4332C26.4232 17.4332 25.8574 18.2776 25.3333 17.7368Z" fill="#263238"/>
<path d="M16.5056 20.1746C16.5056 20.1746 17.6538 16.7093 16.9965 13.9346C16.9965 13.9346 25.8406 9.91187 27.3715 18.756C27.3715 18.756 26.1859 8.90931 18.5606 9.67059C10.9354 10.4319 10.3904 22.0383 14.7251 24.8671C14.7251 24.892 15.5072 22.6165 16.5056 20.1746Z" fill="#263238"/>
<path d="M12.304 21.4767C12.8465 22.3459 13.7109 22.9651 14.7085 23.1989C15.9898 23.4693 16.568 21.4018 16.0813 20.1455C15.8563 19.5804 15.4365 19.1145 14.8978 18.8322C14.3591 18.5499 13.7371 18.4697 13.1444 18.6063C11.9421 18.8975 11.6176 20.3784 12.304 21.4767Z" fill="#E9B376"/>
<path opacity="0.2" d="M14.9832 21.2188C14.9576 21.2189 14.9329 21.2097 14.9137 21.1928C14.8945 21.1759 14.8822 21.1526 14.8792 21.1272C14.832 20.6967 14.6167 20.3022 14.2802 20.0295C13.9436 19.7568 13.513 19.6281 13.082 19.6712C13.0542 19.6726 13.0269 19.6635 13.0054 19.6458C12.9838 19.6282 12.9697 19.6031 12.9656 19.5756C12.9644 19.5619 12.966 19.5481 12.9702 19.5351C12.9744 19.522 12.9812 19.5099 12.99 19.4995C12.9989 19.489 13.0098 19.4805 13.022 19.4742C13.0342 19.468 13.0476 19.4643 13.0613 19.4632C13.3036 19.4391 13.5483 19.4631 13.7814 19.5337C14.0145 19.6043 14.2313 19.7202 14.4195 19.8748C14.6077 20.0294 14.7636 20.2196 14.8781 20.4345C14.9927 20.6494 15.0637 20.8848 15.0872 21.1272C15.0895 21.1542 15.0813 21.181 15.0642 21.202C15.0471 21.2229 15.0225 21.2364 14.9957 21.2396L14.9832 21.2188Z" fill="black"/>
<path d="M22.0467 23.5567C21.7198 23.5485 21.4018 23.4481 21.1295 23.2671C20.8572 23.086 20.6415 22.8316 20.5075 22.5333C20.502 22.5208 20.4991 22.5072 20.4988 22.4935C20.4985 22.4798 20.501 22.4662 20.506 22.4534C20.511 22.4407 20.5185 22.429 20.5281 22.4192C20.5376 22.4093 20.549 22.4015 20.5616 22.396C20.5876 22.3863 20.6163 22.3869 20.6419 22.3977C20.6675 22.4086 20.6879 22.4288 20.6989 22.4543C20.846 22.7898 21.111 23.0597 21.4437 23.213C21.7764 23.3664 22.1537 23.3924 22.5043 23.2863C22.5175 23.2826 22.5312 23.2816 22.5447 23.2834C22.5582 23.2852 22.5712 23.2897 22.5829 23.2967C22.5946 23.3037 22.6048 23.3131 22.6127 23.3242C22.6207 23.3352 22.6262 23.3478 22.6291 23.3612C22.6355 23.3876 22.6312 23.4155 22.6172 23.4388C22.6032 23.4622 22.5806 23.4791 22.5543 23.486C22.3886 23.5304 22.2182 23.5541 22.0467 23.5567Z" fill="#263238"/>
<path d="M46.6532 49.3196C46.6532 49.3196 46.4577 47.6556 47.3313 46.5823C48.2049 45.509 48.6126 44.4191 49.3156 43.6703C50.0187 42.9215 49.9646 44.3068 49.7857 45.0389C49.6068 45.7711 49.4154 46.6072 49.9854 46.653C50.5553 46.6988 55.0231 44.573 55.8094 44.7269C56.5956 44.8808 55.9841 45.4508 55.9841 45.4508C55.9841 45.4508 57.0823 44.964 57.3902 45.3468C57.4734 45.4466 57.4983 45.8085 57.0324 46.108C55.9841 46.782 53.7044 48.084 53.7044 48.084C53.8334 48.005 56.7537 46.5989 57.2196 46.445C57.827 46.2453 58.2138 46.445 58.3178 46.8152C58.4676 47.3228 54.9108 49.1906 54.8151 49.3736C54.8151 49.3736 56.8286 48.2296 57.4068 48.5874C57.9851 48.9452 56.7579 49.7356 55.5431 50.2264C54.4283 50.6716 52.3607 51.8447 51.1876 52.1941C49.7358 52.6101 48.6667 52.581 47.739 51.5077C47.1949 50.8838 46.8209 50.1302 46.6532 49.3196Z" fill="#E9B376"/>
<path opacity="0.3" d="M53.276 46.8818C53.2669 46.8815 53.2581 46.879 53.2501 46.8747C53.2422 46.8704 53.2354 46.8643 53.2302 46.8568C53.2241 46.8446 53.2228 46.8305 53.2267 46.8174C53.2305 46.8043 53.2392 46.7931 53.251 46.7861C54.083 46.2994 54.9358 45.8418 55.8052 45.4341C55.8112 45.4313 55.8177 45.4298 55.8243 45.4295C55.831 45.4293 55.8375 45.4303 55.8437 45.4327C55.8499 45.435 55.8556 45.4385 55.8604 45.4431C55.8652 45.4476 55.8691 45.453 55.8718 45.4591C55.8753 45.4649 55.8773 45.4715 55.8779 45.4783C55.8785 45.4851 55.8776 45.4919 55.8752 45.4983C55.8728 45.5047 55.869 45.5104 55.8641 45.5152C55.8592 45.5199 55.8533 45.5235 55.8468 45.5256C54.9857 45.9416 54.1288 46.3909 53.3009 46.8776L53.276 46.8818Z" fill="black"/>
<path opacity="0.3" d="M54.0538 49.8936C54.0415 49.8928 54.0299 49.8879 54.0208 49.8795C54.0117 49.8712 54.0057 49.8601 54.0039 49.8479C53.777 48.6249 53.1988 47.4945 52.3399 46.5948C52.3352 46.5901 52.3315 46.5846 52.329 46.5785C52.3265 46.5725 52.3252 46.566 52.3252 46.5594C52.3252 46.5528 52.3265 46.5463 52.329 46.5403C52.3315 46.5342 52.3352 46.5287 52.3399 46.524C52.3499 46.5144 52.3634 46.509 52.3773 46.509C52.3913 46.509 52.4047 46.5144 52.4148 46.524C53.2784 47.4418 53.8565 48.5908 54.0788 49.8312C54.0799 49.8378 54.0798 49.8445 54.0783 49.8511C54.0769 49.8576 54.0741 49.8637 54.0703 49.8691C54.0664 49.8746 54.0615 49.8792 54.0558 49.8827C54.0501 49.8862 54.0438 49.8885 54.0372 49.8895L54.0538 49.8936Z" fill="black"/>
<path opacity="0.3" d="M48.779 49.8895C48.767 49.8909 48.755 49.8879 48.745 49.8811C48.7351 49.8743 48.7279 49.8642 48.7249 49.8525C48.7218 49.8408 48.7231 49.8285 48.7285 49.8177C48.7338 49.8069 48.7429 49.7984 48.754 49.7938C49.1934 49.5628 49.5422 49.1906 49.7441 48.7372C49.9348 48.2761 49.9612 47.7635 49.819 47.2853C49.8152 47.2715 49.8169 47.2568 49.824 47.2443C49.831 47.2318 49.8426 47.2226 49.8564 47.2188C49.8627 47.2168 49.8693 47.2162 49.8759 47.2168C49.8824 47.2174 49.8887 47.2194 49.8945 47.2224C49.9003 47.2255 49.9055 47.2297 49.9096 47.2348C49.9138 47.2399 49.9169 47.2457 49.9188 47.252C50.071 47.7538 50.0428 48.2931 49.8392 48.7763C49.6356 49.2595 49.2694 49.6562 48.8039 49.8978L48.779 49.8895Z" fill="black"/>
<path d="M59.5618 2.97716C60.6059 2.4114 56.9784 5.6562 57.3736 8.85524C57.7688 12.0543 58.5259 19.7004 58.5259 19.7004L65.8475 17.7535L59.5618 2.97716Z" fill="#263238"/>
<path d="M102.535 45.5048L91.5272 52.7807C91.1934 52.4469 90.8873 52.0866 90.612 51.7032C89.1352 49.7938 87.0053 46.3576 86.3189 45.2303L80.7694 53.5503C82.3918 55.2434 89.0062 59.732 90.1211 59.9151C93.0123 60.3935 104.581 47.8719 104.581 47.8719L102.535 45.5048Z" fill="#E9B376"/>
<path d="M61.5876 19.6837C59.0916 20.757 55.1438 27.725 55.1438 27.725L56.1672 29.364L58.0142 30.2293C58.0142 30.2293 61.0094 25.3621 62.9854 24.4885C64.9614 23.6149 61.5876 19.6837 61.5876 19.6837Z" fill="#407BFF"/>
<path opacity="0.3" d="M61.5876 19.6837C59.0916 20.757 55.1438 27.725 55.1438 27.725L56.1672 29.364L58.0142 30.2293C58.0142 30.2293 61.0094 25.3621 62.9854 24.4885C64.9614 23.6149 61.5876 19.6837 61.5876 19.6837Z" fill="white"/>
<path d="M61.5876 19.6837C65.5736 17.5223 70.2035 16.8653 74.6334 17.8325C75.9438 18.4732 76.9256 19.5464 78.3982 27.4005C78.8849 30.013 81.5265 30.0588 82.6539 32.5631C82.9754 33.0017 83.1096 33.55 83.0269 34.0875C82.9442 34.625 82.6514 35.1077 82.2129 35.4293C82.0723 35.5339 81.9185 35.6192 81.7553 35.6831C77.8325 37.2472 70.4609 39.7932 66.2427 38.6575C66.2468 38.6616 61.858 28.1909 61.5876 19.6837Z" fill="#407BFF"/>
<path opacity="0.3" d="M61.5876 19.6837C65.5736 17.5223 70.2035 16.8653 74.6334 17.8325C75.9438 18.4732 76.9256 19.5464 78.3982 27.4005C78.8849 30.013 81.5265 30.0588 82.6539 32.5631C82.9754 33.0017 83.1096 33.55 83.0269 34.0875C82.9442 34.625 82.6514 35.1077 82.2129 35.4293C82.0723 35.5339 81.9185 35.6192 81.7553 35.6831C77.8325 37.2472 70.4609 39.7932 66.2427 38.6575C66.2468 38.6616 61.858 28.1909 61.5876 19.6837Z" fill="white"/>
<path d="M82.1215 58.3051C86.2399 69.0629 89.3183 76.0684 89.3183 76.0684L86.6683 77.4411C86.6683 77.4411 80.5864 70.964 75.0619 59.6738C73.7313 56.9636 72.5413 54.1866 71.4968 51.3538L78.3983 45.5298C79.3611 49.8644 80.6048 54.1319 82.1215 58.3051Z" fill="#E9B376"/>
<path opacity="0.2" d="M71.4968 51.3704L76.4597 48.7372C77.1336 52.086 80.1663 51.4744 81.3519 56.1336C79.7919 56.5996 75.7109 57.7269 74.0427 57.5314C73.0537 55.5386 72.203 53.4801 71.4968 51.3704Z" fill="black"/>
<path d="M85.1415 75.7522L88.6401 74.6124C88.6964 74.5905 88.759 74.5919 88.8143 74.616C88.8697 74.6402 88.9132 74.6852 88.9354 74.7413L90.0087 77.4578C90.0549 77.6024 90.0424 77.7593 89.9739 77.8947C89.9054 78.0301 89.7864 78.1332 89.6426 78.1816C88.4154 78.5602 87.8081 78.6642 86.2689 79.1676C84.9122 79.6677 83.5221 80.0723 82.1089 80.3781C80.7486 80.5944 80.578 79.2424 81.1354 79.022C82.45 78.5186 83.9934 77.0626 84.6465 76.085C84.7688 75.9209 84.9434 75.8035 85.1415 75.7522Z" fill="#263238"/>
<path d="M83.5525 76.684C83.4842 76.6477 83.4273 76.593 83.3884 76.5261C83.3494 76.4593 83.3299 76.3828 83.332 76.3055C83.326 76.2576 83.3319 76.2089 83.3494 76.1639C83.3668 76.1189 83.3951 76.0789 83.4318 76.0476C83.7646 75.773 84.8462 76.0808 84.971 76.1224C84.9841 76.1293 84.9957 76.1387 85.005 76.1501C85.0143 76.1616 85.0211 76.1748 85.0251 76.189C85.0271 76.2037 85.0241 76.2187 85.0165 76.2315C85.009 76.2444 84.9974 76.2543 84.9835 76.2597C84.7337 76.4176 84.4673 76.5473 84.189 76.6466C83.9888 76.7376 83.7619 76.751 83.5525 76.684ZM83.5525 76.1765C83.5331 76.1914 83.5183 76.2113 83.5095 76.234C83.5007 76.2568 83.4983 76.2815 83.5026 76.3055C83.5023 76.3537 83.5145 76.4012 83.5378 76.4434C83.5611 76.4857 83.5948 76.5212 83.6357 76.5468C83.8312 76.6424 84.2472 76.526 84.7672 76.2514C84.3512 76.1349 83.7272 76.0434 83.5442 76.1932L83.5525 76.1765Z" fill="#407BFF"/>
<path d="M84.9294 76.2847C84.5592 76.2015 83.8811 75.6981 83.8436 75.3362C83.8355 75.2713 83.8501 75.2055 83.885 75.1501C83.9199 75.0947 83.9729 75.0532 84.035 75.0325C84.0892 75.0078 84.1481 74.995 84.2076 74.995C84.2672 74.995 84.3261 75.0078 84.3803 75.0325C84.7963 75.2363 85.0126 76.1682 85.0251 76.1932C85.0251 76.2189 85.0163 76.2439 85.0001 76.2639C84.9951 76.2668 84.9893 76.2683 84.9835 76.2683C84.9776 76.2683 84.9719 76.2668 84.9668 76.2639C84.9575 76.2753 84.9441 76.2827 84.9294 76.2847ZM84.0974 75.1698C84.0806 75.1722 84.0644 75.1781 84.0501 75.1871C84.0357 75.1962 84.0234 75.2082 84.0139 75.2223C84.0045 75.2365 83.9982 75.2524 83.9954 75.2692C83.9925 75.2859 83.9933 75.3031 83.9976 75.3196C84.1666 75.6766 84.4635 75.9572 84.8296 76.1058C84.7505 75.8104 84.5508 75.3071 84.3012 75.1906C84.274 75.1773 84.2441 75.1705 84.2139 75.1705C84.1836 75.1705 84.1537 75.1773 84.1265 75.1906L84.0974 75.1698Z" fill="#407BFF"/>
<path d="M103.649 48.8328L101.27 46.0332C101.227 45.989 101.204 45.9301 101.204 45.8688C101.204 45.8076 101.227 45.7487 101.27 45.7045L103.375 43.6786C103.491 43.5811 103.641 43.533 103.793 43.5447C103.945 43.5563 104.086 43.6268 104.186 43.741C105.018 44.7311 105.355 45.2469 106.378 46.4741C107.357 47.5331 108.26 48.6605 109.078 49.8479C109.789 51.0293 108.608 51.6949 108.2 51.2623C107.235 50.2348 105.288 49.3653 104.144 49.1324C103.952 49.0868 103.779 48.982 103.649 48.8328Z" fill="#263238"/>
<path d="M105.105 49.9352C105.097 50.0118 105.068 50.0846 105.021 50.1455C104.974 50.2065 104.911 50.2532 104.839 50.2805C104.798 50.305 104.75 50.3179 104.702 50.3179C104.654 50.3179 104.606 50.305 104.565 50.2805C104.174 50.0767 104.065 48.9576 104.053 48.8287C104.053 48.8148 104.057 48.8013 104.064 48.789C104.07 48.7768 104.079 48.7661 104.09 48.7579C104.103 48.7497 104.117 48.7453 104.132 48.7453C104.147 48.7453 104.161 48.7497 104.174 48.7579C104.415 48.929 104.635 49.1272 104.831 49.3487C104.914 49.4231 104.98 49.5134 105.028 49.6141C105.075 49.7149 105.101 49.8241 105.105 49.9352ZM104.648 50.1432C104.668 50.1553 104.691 50.1617 104.714 50.1617C104.738 50.1617 104.761 50.1553 104.781 50.1432C104.827 50.126 104.867 50.0969 104.898 50.0588C104.928 50.0208 104.948 49.9753 104.956 49.9269C104.956 49.7106 104.706 49.3695 104.236 48.9992C104.298 49.4444 104.444 50.0351 104.652 50.1474L104.648 50.1432Z" fill="#407BFF"/>
<path d="M104.215 48.812C104.278 49.2031 104.074 50.0018 103.753 50.1765C103.695 50.2067 103.629 50.217 103.564 50.2057C103.499 50.1944 103.44 50.1623 103.396 50.1141C103.352 50.0746 103.317 50.0256 103.295 49.9709C103.272 49.9161 103.263 49.857 103.267 49.798C103.3 49.3362 104.078 48.7788 104.099 48.7621C104.11 48.7559 104.123 48.7527 104.136 48.7527C104.149 48.7527 104.162 48.7559 104.174 48.7621C104.176 48.7659 104.177 48.7702 104.177 48.7746C104.177 48.779 104.176 48.7833 104.174 48.7871C104.189 48.7918 104.204 48.8004 104.215 48.812ZM103.512 49.9852C103.532 50.013 103.561 50.0326 103.594 50.0403C103.627 50.048 103.661 50.0431 103.691 50.0268C103.946 49.7289 104.084 49.3494 104.082 48.9576C103.841 49.149 103.446 49.5192 103.429 49.7896C103.425 49.8206 103.427 49.8522 103.435 49.8823C103.444 49.9124 103.459 49.9403 103.479 49.9644L103.512 49.9852Z" fill="#407BFF"/>
<path d="M70.6439 18.0072C70.6439 18.0072 68.4516 20.5324 66.2218 20.8319C64.483 21.0607 64.5578 19.5548 64.5578 19.5548C64.7289 19.2984 64.8607 19.018 64.9489 18.7228C65.5562 16.7717 63.5636 15.3573 63.5636 15.3573L65.3482 14.4296L69.2503 12.3912C68.1729 16.1352 70.6439 18.0072 70.6439 18.0072Z" fill="#E9B376"/>
<path opacity="0.2" d="M68.9093 13.9887C68.9093 13.9887 67.7361 18.053 64.9739 18.7144C65.5771 16.7634 63.5886 15.349 63.5886 15.349L65.3733 14.4213L68.9093 13.9887Z" fill="black"/>
<path d="M71.5549 7.43668C72.0167 11.006 70.8269 15.3116 68.0189 16.4389C62.8522 18.5189 60.5518 17.8991 59.1457 14.0428C57.8644 10.5775 57.9767 4.6786 62.1991 2.7234C66.4215 0.768196 70.906 2.47796 71.5549 7.43668Z" fill="#E9B376"/>
<path d="M63.7175 10.0908C63.7924 10.5442 63.6093 10.9519 63.3265 10.9976C63.0436 11.0434 62.7316 10.7148 62.6567 10.2613C62.5818 9.80788 62.7649 9.42932 63.0478 9.36276C63.3306 9.2962 63.6426 9.63316 63.7175 10.0908Z" fill="#263238"/>
<path d="M60.0775 10.5026C60.1482 10.9186 59.9777 11.3346 59.6865 11.372C59.3953 11.4095 59.1207 11.0975 59.05 10.669C58.9793 10.2405 59.154 9.837 59.441 9.80372C59.7281 9.77044 60.0276 10.0741 60.0775 10.5026Z" fill="#263238"/>
<path d="M62.0453 8.03572C62.0084 8.01502 61.9792 7.9829 61.9621 7.9442C61.9522 7.91912 61.9474 7.8923 61.9482 7.86535C61.9489 7.8384 61.9551 7.81188 61.9664 7.78739C61.9777 7.7629 61.9938 7.74095 62.0138 7.72286C62.0338 7.70476 62.0572 7.6909 62.0827 7.68212C62.3869 7.56142 62.7159 7.51653 63.0413 7.55132C63.3667 7.58611 63.6787 7.69952 63.9505 7.8818C63.9719 7.89812 63.9899 7.91851 64.0034 7.9418C64.0169 7.9651 64.0256 7.99083 64.0291 8.01752C64.0325 8.0442 64.0307 8.07131 64.0237 8.09728C64.0166 8.12326 64.0045 8.14758 63.988 8.16884C63.9544 8.21091 63.906 8.23862 63.8527 8.24635C63.7994 8.25407 63.7451 8.24123 63.7009 8.21044C63.4818 8.06979 63.2317 7.98455 62.9722 7.96209C62.7128 7.93962 62.4518 7.98059 62.2117 8.08147C62.1523 8.08853 62.0926 8.07211 62.0453 8.03572Z" fill="#263238"/>
<path d="M58.5757 8.80115C58.5327 8.80095 58.4907 8.78792 58.4551 8.76371C58.417 8.72483 58.3956 8.67255 58.3956 8.61811C58.3956 8.56366 58.417 8.51139 58.4551 8.47251C58.6638 8.22033 58.9309 8.02294 59.2332 7.89752C59.5355 7.77209 59.8639 7.72242 60.1898 7.75283C60.2433 7.76007 60.2917 7.78822 60.3245 7.83111C60.3572 7.874 60.3716 7.92813 60.3645 7.98163C60.3544 8.03531 60.3243 8.08317 60.2803 8.11558C60.2363 8.14799 60.1817 8.16255 60.1274 8.15635C59.8679 8.13852 59.6079 8.18368 59.3696 8.28799C59.1313 8.39229 58.9218 8.55264 58.7588 8.75539C58.7336 8.77608 58.7041 8.79093 58.6724 8.79884C58.6407 8.80675 58.6077 8.80754 58.5757 8.80115Z" fill="#263238"/>
<path d="M60.8722 10.9144L61.6501 12.749C61.1927 12.9452 60.6871 13.0003 60.1982 12.9071C60.542 12.2893 60.7703 11.614 60.8722 10.9144Z" fill="#D58745"/>
<path d="M68.019 10.382C68.019 10.382 68.5473 8.03988 69.7995 8.50996C71.0516 8.98004 71.5009 12.67 69.8328 12.9653C68.1646 13.2607 67.4824 11.7132 68.019 10.382Z" fill="#E9B376"/>
<path d="M61.8539 14.3048C62.2648 14.6776 62.6486 15.0794 63.002 15.5071L63.2558 15.3615C64.3915 14.6751 64.6952 13.9845 64.6827 13.4271C64.6562 12.9939 64.4848 12.5821 64.196 12.2581C63.8049 12.9778 62.794 13.6933 62.2449 14.0511C62.1204 14.1443 61.9897 14.229 61.8539 14.3048Z" fill="#263238"/>
<path d="M62.2241 14.0677L62.5736 14.4172C63.6427 13.7724 64.3083 13.1692 64.4497 12.6492C64.3788 12.5065 64.2877 12.3748 64.1793 12.2581C63.8049 12.9944 62.794 13.71 62.2241 14.0677Z" fill="white"/>
<path d="M63.2559 15.3615C64.3915 14.6751 64.6952 13.9845 64.6827 13.4271C64.2571 13.6942 63.8812 14.0335 63.572 14.4296C63.3715 14.6994 63.2609 15.0254 63.2559 15.3615Z" fill="#C15854"/>
<path d="M67.6321 26.3605C67.6321 26.3605 69.7911 23.6981 71.0849 25.6367C72.6906 28.037 67.5946 31.7768 67.5946 31.7768C67.5946 31.7768 63.9255 28.7775 64.899 26.502C66.1303 23.6316 67.6321 26.3605 67.6321 26.3605Z" fill="white"/>
<path d="M65.2859 37.0891C64.0836 40.1051 64.6702 50.3595 67.0539 57.1528C67.0539 57.1528 70.2072 58.1304 79.0388 55.6303C86.3105 53.5752 90.666 50.7298 90.666 50.7298C88.091 45.4008 83.6897 32.8085 82.6414 32.4258L65.2859 37.0891Z" fill="#407BFF"/>
<path opacity="0.2" d="M90.666 50.7132C90.666 50.7132 90.0212 51.1292 88.8231 51.7656C88.2532 52.0652 87.5751 52.4146 86.7431 52.789C86.0193 53.1218 85.1998 53.4796 84.2887 53.8332C83.6675 54.0883 83.0033 54.3393 82.2961 54.5861C81.2935 54.9397 80.2161 55.2892 79.0388 55.6178C78.7227 55.7093 78.419 55.7925 78.1195 55.8716C77.562 56.0213 77.0254 56.1586 76.5137 56.2626C75.2657 56.558 74.1675 56.7826 73.1857 56.9324C72.4036 57.0613 71.738 57.1487 71.1307 57.2028C70.3902 57.2825 69.6456 57.3186 68.9009 57.3109C68.6231 57.3187 68.3452 57.3076 68.0689 57.2776C67.7138 57.2617 67.3612 57.2101 67.0164 57.1237C64.6369 50.3138 64.0503 40.0677 65.2526 37.0642L82.6081 32.38C83.6897 32.796 88.091 45.4092 90.666 50.7132Z" fill="black"/>
<path opacity="0.2" d="M66.7668 46.7903L68.9217 57.3276C68.644 57.3353 68.366 57.3242 68.0897 57.2943L66.7668 46.7903Z" fill="black"/>
<path opacity="0.2" d="M71.1514 57.2194L69.5914 41.324L73.1898 56.9365C72.441 57.0572 71.7588 57.1653 71.1514 57.2194Z" fill="black"/>
<path opacity="0.2" d="M76.5179 56.2917L73.5393 40.2508L78.1153 55.8882C77.5662 56.0213 77.0295 56.1586 76.5179 56.2917Z" fill="black"/>
<path opacity="0.2" d="M82.3003 54.5861L78.3982 38.6783L84.3095 53.8332C83.6731 54.0869 83.0241 54.3407 82.3003 54.5861Z" fill="black"/>
<path opacity="0.2" d="M88.8231 51.7656C88.2532 52.0652 87.5751 52.4146 86.7431 52.789L82.1172 37.6757L88.8231 51.7656Z" fill="black"/>
<path opacity="0.2" d="M91.5272 52.7807C91.5967 53.4931 91.5967 54.2106 91.5272 54.9231C92.0861 54.1681 92.3469 53.2334 92.2594 52.2981L91.5272 52.7807Z" fill="black"/>
<path opacity="0.2" d="M61.4878 25.6408L61.7041 22.4168L62.1492 25.0002L61.4878 25.6408Z" fill="black"/>
<path d="M77.2002 14.3922C76.9298 13.8056 73.764 3.23092 70.1531 1.34228C68.1979 0.135879 65.469 0.0193978 62.8482 0.610118C59.0418 1.44212 58.1016 4.41652 60.3522 5.60212C60.3896 5.78516 64.6744 6.65876 66.2344 9.12564C67.8984 11.7631 66.509 12.9695 67.4824 14.908C68.4559 16.8466 68.8843 17.1628 68.8843 17.1628L75.9563 15.2284C75.9563 15.2284 77.4872 15.0412 77.2002 14.3922Z" fill="#263238"/>
<path d="M45.0349 142.57L41.2036 153.228L37.6301 152.109L38.7492 140.889L45.0349 142.57Z" fill="#E9B376"/>
<path d="M41.7735 156.369C41.6903 157.147 41.632 157.683 41.632 157.683H38.3997C38.0809 157.508 37.7271 157.406 37.3639 157.384C36.9812 157.434 35.65 157.692 35.65 157.692H27.0637C27.1226 157.364 27.206 157.042 27.3133 156.727C27.4169 156.416 27.5565 156.119 27.7293 155.84C27.9318 155.473 28.2267 155.164 28.5849 154.945C28.9431 154.726 29.3523 154.605 29.7719 154.592C30.9741 154.513 34.7639 151.98 34.7639 151.98C35.1646 151.826 35.5132 151.561 35.7689 151.217C36.0245 150.872 36.1766 150.461 36.2074 150.033C36.2324 149.488 37.0394 148.818 37.4263 148.76C38.2084 148.644 38.6493 149.143 38.7616 149.925L38.8989 150.836L40.7085 150.553C40.7085 150.553 42.5514 149.617 42.464 150.52" fill="#263238"/>
<g opacity="0.2">
<path d="M27.0637 157.729H35.65C35.65 157.729 36.9812 157.471 37.3639 157.421C37.7271 157.443 38.0809 157.545 38.3997 157.721H41.632C41.632 157.721 41.6903 157.184 41.7735 156.406L27.3133 156.789C27.2072 157.096 27.1238 157.41 27.0637 157.729Z" fill="white"/>
</g>
<path d="M32.8586 152.966C32.8795 152.95 32.9051 152.941 32.9314 152.941C32.9577 152.941 32.9832 152.95 33.0042 152.966C33.2248 153.114 33.4026 153.318 33.52 153.557C33.5824 153.69 33.3911 153.815 33.3245 153.681C33.2237 153.471 33.0686 153.292 32.8752 153.161C32.8621 153.151 32.8516 153.137 32.8444 153.121C32.8371 153.106 32.8334 153.089 32.8334 153.072C32.8334 153.055 32.8371 153.038 32.8444 153.023C32.8516 153.007 32.8621 152.994 32.8752 152.983L32.8586 152.966Z" fill="#407BFF"/>
<path d="M33.5409 152.562C33.5618 152.547 33.5874 152.538 33.6137 152.538C33.6399 152.538 33.6655 152.547 33.6865 152.562C33.907 152.711 34.0849 152.915 34.2023 153.153C34.2647 153.282 34.0733 153.411 34.0068 153.278C33.9072 153.067 33.7518 152.887 33.5575 152.758C33.5423 152.749 33.5294 152.736 33.5198 152.721C33.5102 152.706 33.5042 152.689 33.5022 152.672C33.5002 152.654 33.5023 152.636 33.5082 152.619C33.5142 152.602 33.524 152.587 33.5367 152.575L33.5409 152.562Z" fill="#407BFF"/>
<path d="M34.2439 152.184C34.2648 152.168 34.2904 152.159 34.3167 152.159C34.343 152.159 34.3685 152.168 34.3895 152.184C34.6111 152.331 34.7892 152.535 34.9053 152.775C34.9677 152.908 34.7764 153.037 34.714 152.904C34.6116 152.692 34.4552 152.511 34.2605 152.379C34.246 152.37 34.2338 152.358 34.2247 152.343C34.2156 152.328 34.2098 152.312 34.2078 152.295C34.2058 152.278 34.2077 152.26 34.2132 152.244C34.2187 152.228 34.2278 152.213 34.2397 152.201L34.2439 152.184Z" fill="#407BFF"/>
<path d="M69.7412 141.389L71.4302 152.924L75.195 153.078L76.3057 141.929L69.7412 141.389Z" fill="#E9B376"/>
<path d="M78.4481 158.22L70.0283 158.303C70.0283 158.303 69.8411 157.954 70.0283 157.009C70.056 156.865 70.0976 156.703 70.1531 156.523C70.1531 156.523 70.1531 156.523 70.1531 156.498C70.2321 156.236 70.3195 155.915 70.411 155.566C70.7812 154.156 71.218 152.309 71.218 152.309C71.218 152.309 72.5908 149.293 74.2382 150.025C75.6817 150.67 75.3614 152.554 75.3614 152.554C75.5305 153.369 75.9704 154.102 76.6094 154.634C77.2916 155.229 77.9656 155.691 78.2984 156.435C78.3599 156.581 78.4086 156.731 78.4439 156.885C78.4463 156.904 78.4463 156.924 78.4439 156.943C78.5238 157.365 78.5252 157.798 78.4481 158.22Z" fill="#263238"/>
<g opacity="0.2">
<path d="M70.0448 157.009C69.8451 157.954 70.0448 158.303 70.0448 158.303L78.4646 158.22C78.5521 157.794 78.5591 157.355 78.4854 156.926L70.0448 157.009Z" fill="white"/>
</g>
<path d="M75.0452 153.028C74.824 152.854 74.5459 152.769 74.2651 152.789C73.9843 152.809 73.7211 152.933 73.5268 153.136C73.4103 153.253 73.2356 153.078 73.3479 152.966C73.589 152.716 73.9149 152.566 74.2613 152.544C74.6078 152.523 74.9497 152.632 75.2199 152.849C75.3489 152.949 75.17 153.124 75.0452 153.028Z" fill="#407BFF"/>
<path d="M75.2906 153.815C75.0697 153.64 74.7914 153.554 74.5104 153.574C74.2293 153.594 73.966 153.718 73.7722 153.923C73.6557 154.035 73.481 153.86 73.5933 153.748C73.8344 153.498 74.1607 153.348 74.5074 153.327C74.8541 153.306 75.196 153.416 75.4653 153.636C75.5942 153.731 75.4154 153.91 75.2906 153.815Z" fill="#407BFF"/>
<path d="M75.5361 154.534C75.3153 154.359 75.0369 154.273 74.7559 154.293C74.4748 154.313 74.2115 154.438 74.0177 154.642C74.0062 154.654 73.9925 154.664 73.9774 154.67C73.9624 154.676 73.9461 154.68 73.9297 154.68C73.8966 154.68 73.8646 154.668 73.8409 154.645C73.8172 154.621 73.8036 154.59 73.8032 154.557C73.8028 154.523 73.8156 154.491 73.8388 154.468C74.0804 154.219 74.4066 154.069 74.753 154.048C75.0994 154.027 75.4411 154.137 75.7108 154.355C75.8398 154.455 75.6609 154.63 75.5361 154.534Z" fill="#407BFF"/>
<path d="M78.1236 68.4181L60.4894 68.7384L49.4196 68.5138C49.4196 68.5138 41.9774 102.093 41.3783 108.408C40.7793 114.723 35.442 148.003 35.442 148.003L44.0657 149.825C44.0657 149.825 53.5006 114.207 54.1703 110.784C54.7569 107.805 61.3671 88.6648 63.0561 83.7976C63.2391 84.7877 63.4305 85.782 63.6219 86.772C64.1044 91.2399 65.6519 105.492 66.3175 110.784C66.3175 110.784 67.9483 141.077 69.5831 149.863L77.6785 149.796C78.627 137.291 78.8807 93.3989 78.8807 93.3989C79.3841 83.8434 78.1236 68.4181 78.1236 68.4181Z" fill="#263238"/>
<g opacity="0.5">
<path d="M54.0081 73.4767C53.5032 75.1608 52.5912 76.6947 51.3527 77.9426C50.1141 79.1906 48.5873 80.1142 46.907 80.6319C46.7281 80.686 46.8072 80.973 46.9902 80.9148C48.719 80.3833 50.2901 79.4337 51.5643 78.1501C52.8385 76.8664 53.7765 75.2884 54.2952 73.5557C54.301 73.5193 54.2932 73.482 54.2733 73.451C54.2533 73.42 54.2226 73.3974 54.1871 73.3876C54.1515 73.3778 54.1136 73.3815 54.0806 73.3979C54.0475 73.4144 54.0218 73.4424 54.0081 73.4767Z" fill="black"/>
<path d="M63.2434 73.3852C63.0742 76.3471 62.905 79.3076 62.7358 82.2668C62.7358 82.4581 62.4322 82.4623 62.4405 82.2668C62.5292 80.747 62.6152 79.2216 62.6984 77.6908C61.9746 78.2607 61.1134 77.5868 60.868 76.838C60.452 75.6191 60.6018 74.1672 60.893 72.9442C60.9068 72.9108 60.9323 72.8836 60.9647 72.8675C60.997 72.8515 61.0341 72.8476 61.0691 72.8568C61.104 72.8659 61.1345 72.8873 61.1549 72.9172C61.1753 72.947 61.1842 72.9832 61.18 73.0191C60.9711 73.876 60.8982 74.7604 60.9637 75.6399C60.9694 76.1113 61.0698 76.5767 61.259 77.0085C61.4962 77.4661 62.091 77.8405 62.5611 77.4245C62.5818 77.4062 62.6072 77.3941 62.6345 77.3897C62.6617 77.3853 62.6897 77.3887 62.715 77.3996C62.7941 76.06 62.8731 74.7122 62.948 73.3727C62.9563 73.198 63.2517 73.198 63.2434 73.3852Z" fill="black"/>
<path d="M71.946 73.8053C71.9527 75.6938 72.6727 77.51 73.9618 78.8901C75.2509 80.2702 77.0138 81.1122 78.8974 81.2476C79.0846 81.2476 79.0804 80.9689 78.8974 80.9564C77.089 80.826 75.3971 80.0154 74.1621 78.6879C72.9272 77.3603 72.2409 75.6143 72.2414 73.8012C72.2414 73.7626 72.2261 73.7255 72.1988 73.6982C72.1715 73.6709 72.1344 73.6556 72.0958 73.6556C72.0572 73.6556 72.0202 73.6709 71.9929 73.6982C71.9655 73.7255 71.9502 73.7626 71.9502 73.8012L71.946 73.8053Z" fill="black"/>
</g>
<path d="M42.7511 27.5835C39.2651 29.6303 36.6567 42.0271 36.6567 42.0271L46.4161 45.2136L49.8023 38.1125L42.7511 27.5835Z" fill="#407BFF"/>
<path opacity="0.2" d="M45.0724 37.734L44.5149 44.6396L42.0647 43.8076C43.0548 41.1618 42.5639 31.3983 42.5639 31.3983C42.5639 31.3983 44.1738 35.9826 45.0724 37.734Z" fill="black"/>
<path d="M44.6814 26.6892C47.1774 25.9736 55.4724 23.0824 66.2468 22.862L71.2097 33.4284L76.5636 59.4866C76.5636 59.4866 77.6161 62.4735 78.498 68.1685C68.6388 74.733 55.1396 74.5916 47.298 71.8335C46.9902 68.4722 47.5144 69.1253 46.7822 62.6482C45.4926 51.2415 43.0382 38.15 42.6222 27.7042C42.6721 27.4588 44.4318 26.7682 44.6814 26.6892Z" fill="#407BFF"/>
<path d="M59.699 23.0991C57.7646 19.8501 54.8193 17.2751 54.8567 12.4578L48.8705 21.4434C49.1566 21.7488 49.4207 22.0741 49.6609 22.4168C50.1135 23.0265 50.4001 23.7432 50.4929 24.4968C50.5511 25.1208 49.4404 26.4812 49.4404 26.4812C49.4404 26.4812 52.2692 27.9954 57.0407 26.3896C59.882 25.4412 59.699 23.0991 59.699 23.0991Z" fill="#E9B376"/>
<path opacity="0.2" d="M53.7543 16.7343C55.3518 20.316 52.1985 23.2946 50.5012 24.4843C50.405 23.738 50.1185 23.0289 49.6692 22.4251L53.7543 16.7343Z" fill="black"/>
<path d="M54.6695 10.1032C55.0023 14.8872 55.2852 17.5912 53.1969 20.3119C50.0602 24.4178 44.0449 23.0492 42.2894 18.444C40.7086 14.284 40.434 7.16628 44.8478 4.71604C45.8258 4.17249 46.9256 3.88577 48.0445 3.88266C49.1634 3.87954 50.2648 4.16014 51.2458 4.69822C52.2269 5.23631 53.0555 6.01431 53.6542 6.95954C54.2529 7.90477 54.6022 8.98636 54.6695 10.1032Z" fill="#E9B376"/>
<path d="M53.2427 3.30995C51.2001 0.605953 46.9694 2.61523 45.3137 4.19187C45.0641 4.42483 49.2033 5.85587 48.9579 5.81427L50.2059 6.99571C50.3806 6.93331 50.6219 8.58483 50.8548 10.02C51.0503 11.3341 51.6013 12.5698 52.4481 13.5935C53.2718 14.6039 54.1974 15.5267 55.2104 16.3474C56.762 15.3199 56.4792 12.4204 56.7787 10.6357C57.2321 7.96915 57.4776 2.95219 53.2427 3.30995Z" fill="#263238"/>
<path d="M57.0656 13.814C56.9583 14.3999 56.7362 14.9588 56.4121 15.4586C56.088 15.9583 55.6682 16.3891 55.177 16.726C53.8499 17.6162 53.1178 16.1352 53.0595 14.621C53.0013 13.2607 53.1802 11.5676 54.7235 11.293C56.2669 11.0184 57.3152 12.358 57.0656 13.814Z" fill="#E9B376"/>
<path d="M49.2989 12.1999C49.3655 12.6866 49.1575 13.1109 48.8372 13.1525C48.5168 13.1941 48.209 12.828 48.1466 12.3413C48.0842 11.8546 48.288 11.4303 48.6084 11.3928C48.9287 11.3554 49.2365 11.7132 49.2989 12.1999Z" fill="#263238"/>
<path d="M43.8077 13.0236C43.8701 13.5103 43.6663 13.9346 43.3459 13.972C43.0256 14.0095 42.7178 13.6476 42.6554 13.165C42.593 12.6824 42.7968 12.254 43.1171 12.2124C43.4375 12.1708 43.7453 12.5452 43.8077 13.0236Z" fill="#263238"/>
<path d="M44.8186 12.6117C44.8186 12.6117 43.5956 15.2283 43.2295 16.2767C43.9866 16.7967 45.114 16.364 45.114 16.364L44.8186 12.6117Z" fill="#D58745"/>
<path d="M48.9412 9.91603C48.906 9.93732 48.8657 9.94858 48.8247 9.94858C48.7836 9.94858 48.7433 9.93732 48.7082 9.91603C48.462 9.76256 48.1836 9.66839 47.8948 9.64095C47.606 9.61352 47.3148 9.65357 47.0442 9.75795C47.0172 9.77146 46.9877 9.77949 46.9576 9.78157C46.9275 9.78366 46.8972 9.77975 46.8686 9.77008C46.84 9.76041 46.8136 9.74518 46.7909 9.72524C46.7682 9.70531 46.7496 9.68108 46.7364 9.65395C46.7229 9.62724 46.715 9.59812 46.7129 9.56829C46.7109 9.53846 46.7148 9.50853 46.7245 9.48025C46.7342 9.45197 46.7494 9.4259 46.7693 9.40358C46.7892 9.38126 46.8134 9.36314 46.8404 9.35027C47.176 9.21199 47.5397 9.15572 47.9015 9.1861C48.2632 9.21649 48.6125 9.33266 48.9203 9.52499C48.9467 9.53965 48.9698 9.55945 48.9883 9.58322C49.0068 9.60699 49.0203 9.63424 49.0281 9.66335C49.0359 9.69246 49.0377 9.72283 49.0335 9.75266C49.0292 9.78249 49.0191 9.81117 49.0035 9.83699C48.9893 9.86788 48.9679 9.89496 48.9412 9.91603Z" fill="#263238"/>
<path opacity="0.2" d="M53.8292 14.4546C53.8016 14.4546 53.7752 14.4436 53.7557 14.4241C53.7362 14.4046 53.7252 14.3782 53.7252 14.3506C53.7155 13.9147 53.8218 13.484 54.0331 13.1026C54.2007 12.7706 54.4787 12.5074 54.8193 12.358C54.9982 12.2821 55.1958 12.2617 55.3865 12.2995C55.5772 12.3374 55.752 12.4316 55.8884 12.5701C55.9075 12.5896 55.9181 12.6157 55.9181 12.6429C55.9181 12.6701 55.9075 12.6963 55.8884 12.7157C55.8787 12.7258 55.8671 12.7338 55.8542 12.7393C55.8414 12.7447 55.8275 12.7475 55.8135 12.7475C55.7996 12.7475 55.7857 12.7447 55.7729 12.7393C55.76 12.7338 55.7484 12.7258 55.7387 12.7157C55.6306 12.6109 55.4942 12.54 55.3464 12.5119C55.1985 12.4839 55.0456 12.4997 54.9067 12.5576C54.6119 12.6919 54.3714 12.9221 54.2244 13.2108C54.0336 13.5599 53.9376 13.9528 53.9457 14.3506C53.9457 14.3786 53.9349 14.4055 53.9155 14.4256C53.8961 14.4458 53.8697 14.4577 53.8417 14.4588L53.8292 14.4546Z" fill="black"/>
<path d="M40.929 11.2972C40.8847 11.2931 40.8426 11.2757 40.8083 11.2472C40.7602 11.2095 40.7288 11.1542 40.721 11.0935C40.7132 11.0328 40.7297 10.9715 40.7667 10.9228C40.9839 10.6326 41.2678 10.399 41.5944 10.2419C41.921 10.0847 42.2806 10.0086 42.6429 10.02C42.6729 10.0225 42.7022 10.0308 42.729 10.0446C42.7559 10.0584 42.7797 10.0773 42.7992 10.1003C42.8187 10.1233 42.8335 10.1499 42.8427 10.1786C42.852 10.2073 42.8554 10.2375 42.853 10.2676C42.8505 10.2976 42.8422 10.3269 42.8284 10.3537C42.8146 10.3805 42.7957 10.4044 42.7727 10.4239C42.7498 10.4434 42.7231 10.4582 42.6944 10.4674C42.6657 10.4766 42.6355 10.4801 42.6055 10.4776C42.318 10.4684 42.0327 10.5304 41.775 10.6581C41.5174 10.7859 41.2953 10.9754 41.1287 11.2098C41.1048 11.2393 41.0742 11.2626 41.0395 11.2778C41.0047 11.293 40.9668 11.2996 40.929 11.2972Z" fill="#263238"/>
<path d="M53.2426 3.30996C52.3228 2.15982 51.1077 1.28131 49.7273 0.768393C48.3468 0.255474 46.8528 0.127433 45.4052 0.397957C41.2826 1.11348 38.9822 3.96307 38.7492 6.80435C38.6429 7.75832 38.7773 8.72372 39.1402 9.61235C39.1863 9.72269 39.2649 9.81633 39.3656 9.88073C39.4663 9.94513 39.5843 9.97722 39.7038 9.97269C39.8232 9.96817 39.9385 9.92724 40.034 9.85541C40.1296 9.78357 40.2009 9.68425 40.2385 9.57075C40.2926 9.42852 40.3551 9.28961 40.4257 9.15475C40.4392 9.1888 40.4545 9.22212 40.4714 9.25459C40.5305 9.3658 40.6234 9.45539 40.7366 9.51045C40.8499 9.56552 40.9777 9.58323 41.1016 9.56103C41.2256 9.53883 41.3393 9.47786 41.4264 9.38691C41.5135 9.29596 41.5695 9.17972 41.5863 9.05492C41.6002 8.87223 41.6309 8.69121 41.6778 8.51411C41.7353 8.61427 41.8211 8.69523 41.9245 8.74682C42.0278 8.79842 42.1441 8.81835 42.2587 8.80414C42.3733 8.78992 42.4812 8.74218 42.5688 8.66691C42.6564 8.59163 42.7198 8.49217 42.7511 8.38099C42.9372 7.81489 43.2402 7.29423 43.6404 6.85277C44.0407 6.41132 44.5293 6.05893 45.0745 5.81848C45.6198 5.57803 46.2094 5.45488 46.8053 5.45703C47.4012 5.45917 47.99 5.58655 48.5335 5.83092L50.2308 6.97908C52.3066 5.93908 53.2426 3.30996 53.2426 3.30996Z" fill="#263238"/>
<path d="M47.248 17.7701C47.8247 18.0554 48.3808 18.3806 48.912 18.7436C48.9869 18.6604 49.0701 18.5813 49.145 18.494C50.1975 17.3583 50.314 16.4847 50.1184 15.8607C50.0152 15.5564 49.843 15.2802 49.6151 15.0536C49.4922 14.9254 49.3522 14.8148 49.1991 14.725C48.9994 15.661 48.105 16.805 47.5975 17.3791C47.3604 17.6204 47.248 17.7701 47.248 17.7701Z" fill="#263238"/>
<path d="M47.5725 17.3791L48.0759 17.6495C49.0618 16.5804 49.6192 15.6984 49.6026 15.0536C49.48 14.9252 49.3399 14.8146 49.1866 14.725C48.9786 15.6693 48.08 16.7925 47.5725 17.3791Z" fill="white"/>
<path d="M49.1326 18.494C50.1892 17.3583 50.3057 16.4847 50.106 15.8607C49.7136 16.2986 49.4023 16.8029 49.1866 17.35C49.0504 17.7164 49.0315 18.1162 49.1326 18.494Z" fill="#C15854"/>
<path d="M48.7041 26.0152L50.2558 23.5109L53.8625 26.1151L57.9476 20.3576L61.1134 23.2488L56.9825 29.6386L52.2942 29.2517L48.7041 26.0152Z" fill="#407BFF"/>
<path d="M88.6109 32.2303C86.8429 30.1503 75.0202 26.7391 72.52 25.828L68.9216 33.2869L72.0375 34.0149L84.2928 37.1765L87.0759 41.0328C87.8022 40.1879 88.4316 39.2641 88.952 38.2789C89.9047 36.5525 89.4429 33.2037 88.6109 32.2303Z" fill="#E9B376"/>
<path opacity="0.2" d="M78.8099 27.6293L76.9005 35.2754L72.8528 34.3103L74.2589 26.2732C74.2589 26.2732 76.368 26.9554 78.8099 27.6293Z" fill="black"/>
<path d="M63.0019 24.1932C62.2823 26.5685 62.6234 30.8492 66.2509 32.7669C68.8301 34.1356 74.8413 36.0533 74.8413 36.0533L79.2052 26.3522C79.2052 26.3522 64.2 20.237 63.0019 24.1932Z" fill="#407BFF"/>
<path opacity="0.3" d="M71.5133 34.9218L67.7069 33.1163L71.9668 37.1141L71.5133 34.9218Z" fill="black"/>
<g opacity="0.2">
<path d="M63.8547 66.7499C66.1011 66.2424 67.9565 63.8712 68.9216 61.7829C69.7282 59.8915 70.4337 57.9585 71.0349 55.9922L67.0746 61.1007C66.3078 62.1829 65.4046 63.1617 64.3872 64.0127C62.9271 65.1275 61.1216 65.6767 59.3411 66.1218C57.035 66.6933 54.6932 67.1103 52.3315 67.3698C56.1804 67.8026 60.0745 67.5931 63.8547 66.7499Z" fill="black"/>
</g>
<path d="M58.3262 28.2533C58.3262 28.2533 57.6481 27.126 56.7704 26.868C55.8926 26.6101 55.2062 26.1234 54.5489 25.982C53.8916 25.8405 54.1038 26.6351 54.5198 27.0095C54.9358 27.3839 55.851 27.8415 55.6139 28.1576C55.3767 28.4738 52.419 29.2392 52.1403 29.7052C51.8616 30.1711 52.3899 30.2335 52.3899 30.2335C52.3899 30.2335 51.7284 30.4165 51.7159 30.8325C51.7035 31.2485 52.1652 31.2984 52.1652 31.2984C52.1652 31.2984 51.7284 31.4399 51.8948 31.8226C52.0612 32.2053 54.8068 31.8226 54.9483 31.885C54.9483 31.885 53.2344 31.8434 53.1428 32.3384C53.0513 32.8335 54.0039 32.9167 54.7735 33.0082C55.5797 33.063 56.3834 32.8715 57.0782 32.4591C57.9102 31.9848 59.1582 31.5938 59.0875 30.4872C58.9863 29.699 58.7274 28.9393 58.3262 28.2533Z" fill="#E9B376"/>
<path d="M71.7006 18.7186C69.8244 20.3826 66.9374 25.3746 65.6478 25.6908C64.3582 26.0069 58.4801 28.557 58.4801 28.557L58.7463 31.6354C58.7463 31.6354 66.4881 30.9864 68.3518 29.9714C70.2155 28.9564 74.8705 25.1541 75.7982 23.3944C77.562 20.0332 73.3687 17.0962 71.7006 18.7186Z" fill="#407BFF"/>
<g opacity="0.3">
<path d="M71.7006 18.7186C69.8244 20.3826 66.9374 25.3746 65.6478 25.6908C64.3582 26.0069 58.4801 28.557 58.4801 28.557L58.7463 31.6354C58.7463 31.6354 66.4881 30.9864 68.3518 29.9714C70.2155 28.9564 74.8705 25.1541 75.7982 23.3944C77.562 20.0332 73.3687 17.0962 71.7006 18.7186Z" fill="white"/>
</g>
</svg>
