<svg width="228" height="163" viewBox="0 0 228 163" fill="none" xmlns="http://www.w3.org/2000/svg">
<path d="M204.671 126.812H129.479C128.833 126.811 128.213 126.554 127.756 126.097C127.299 125.64 127.042 125.021 127.041 124.375V14.8501C127.042 14.2039 127.299 13.5845 127.756 13.1276C128.213 12.6706 128.833 12.4135 129.479 12.4124H204.671C205.317 12.4135 205.936 12.6706 206.393 13.1276C206.85 13.5845 207.107 14.2039 207.109 14.8501V124.375C207.107 125.021 206.85 125.64 206.393 126.097C205.936 126.554 205.317 126.811 204.671 126.812ZM129.479 12.5164C128.86 12.5175 128.267 12.7637 127.83 13.2011C127.392 13.6385 127.146 14.2315 127.145 14.8501V124.375C127.146 124.993 127.392 125.586 127.83 126.024C128.267 126.461 128.86 126.707 129.479 126.708H204.671C205.29 126.708 205.883 126.462 206.321 126.025C206.759 125.587 207.005 124.994 207.005 124.375V14.8501C207.005 14.2312 206.759 13.6376 206.321 13.1999C205.883 12.7622 205.29 12.5164 204.671 12.5164H129.479Z" fill="#E0E0E0"/>
<path d="M117.964 126.812H42.776C42.1291 126.812 41.5086 126.556 41.0508 126.099C40.593 125.642 40.3352 125.021 40.3341 124.375V14.8501C40.3352 14.2032 40.593 13.5832 41.0508 13.1261C41.5086 12.6691 42.1291 12.4124 42.776 12.4124H117.964C118.61 12.4124 119.23 12.6692 119.688 13.1264C120.145 13.5835 120.402 14.2036 120.402 14.8501V124.375C120.402 125.021 120.145 125.641 119.688 126.098C119.23 126.556 118.61 126.812 117.964 126.812ZM42.776 12.5164C42.1567 12.5164 41.5627 12.7621 41.1243 13.1996C40.686 13.6372 40.4392 14.2308 40.4381 14.8501V124.375C40.4359 124.683 40.4948 124.989 40.6113 125.274C40.7278 125.56 40.8996 125.82 41.117 126.039C41.3343 126.257 41.5927 126.431 41.8775 126.55C42.1622 126.668 42.4676 126.729 42.776 126.729H117.964C118.27 126.729 118.574 126.669 118.857 126.551C119.14 126.434 119.397 126.262 119.614 126.046C119.831 125.829 120.003 125.572 120.12 125.288C120.237 125.005 120.298 124.702 120.298 124.395V14.8501C120.298 14.5436 120.237 14.2402 120.12 13.957C120.003 13.6739 119.831 13.4166 119.614 13.1999C119.397 12.9832 119.14 12.8113 118.857 12.694C118.574 12.5767 118.27 12.5164 117.964 12.5164H42.776Z" fill="#E0E0E0"/>
<path d="M228 152.217H20V152.321H228V152.217Z" fill="#E0E0E0"/>
<path d="M48.1757 158.15H41.4948V158.254H48.1757V158.15Z" fill="#E0E0E0"/>
<path d="M113.134 157.022H90.8656V157.126H113.134V157.022Z" fill="#E0E0E0"/>
<path d="M63.6717 162.014H48.5917V162.118H63.6717V162.014Z" fill="#E0E0E0"/>
<path d="M195.361 156.968H177.394V157.072H195.361V156.968Z" fill="#E0E0E0"/>
<path d="M201.7 156.968H199.067V157.072H201.7V156.968Z" fill="#E0E0E0"/>
<path d="M173.962 159.56H151.543V159.664H173.962V159.56Z" fill="#E0E0E0"/>
<path d="M208.939 144.472C209.051 143.169 208.872 141.485 207.354 140.985C204.779 140.153 203.256 138.144 203.34 135.889C203.423 133.635 200.719 131.442 198.684 133.556C196.65 135.669 196.925 131.929 194.212 131.018C191.5 130.107 189.22 132.316 189.953 134.346C190.685 136.376 188.022 137.62 184.819 135.906C181.616 134.192 178.097 137.308 178.775 139.746C179.453 142.184 178.895 142.479 176.869 141.643C175.235 140.985 172.56 142.362 172.256 144.488L208.939 144.472Z" fill="#EBEBEB"/>
<path d="M63.3223 144.472C63.4429 143.44 63.3888 141.938 62.1159 141.518C60.1149 140.857 58.9293 139.309 58.9959 137.562C59.0624 135.815 56.9616 134.105 55.385 135.74C53.8084 137.375 54.0205 134.492 51.9156 133.772C49.8106 133.052 48.026 134.779 48.5876 136.343C49.1492 137.907 47.0858 138.881 44.6023 137.553C42.1188 136.226 39.3856 138.648 39.9098 140.545C40.434 142.441 40.0055 142.625 38.433 142.013C37.0976 141.481 34.8887 142.683 34.8346 144.472H63.3223Z" fill="#EBEBEB"/>
<path d="M56.192 144.472H102.955C103.616 142.279 101.915 139.646 100.043 139.272C97.7671 138.818 95.4874 134.812 95.3709 132.262C95.2544 129.712 91.1651 121.862 84.7879 126.708C78.4106 131.555 80.3533 127.424 75.7399 126.064C71.1264 124.703 68.2186 128.618 70.2445 131.555C70.2445 131.555 65.6103 130.394 63.7008 134.721C61.7914 139.047 63.7008 141.73 63.7008 141.73C63.7008 141.73 57.856 141.564 56.192 144.472Z" fill="#EBEBEB"/>
<path d="M118.721 24.8341C118.722 24.5446 118.779 24.258 118.89 23.9907C119.002 23.7234 119.165 23.4807 119.37 23.2763C119.575 23.072 119.818 22.91 120.086 22.7997C120.354 22.6894 120.64 22.6329 120.93 22.6335C121.141 22.6347 121.351 22.6655 121.554 22.725C121.373 21.5054 121.683 20.2637 122.417 19.273C123.152 18.2823 124.249 17.6236 125.468 17.4418C125.697 17.4086 125.928 17.3919 126.159 17.3919C126.448 17.393 126.736 17.4195 127.02 17.4709C127.481 16.7171 128.175 16.1338 128.997 15.809C129.819 15.4842 130.724 15.4356 131.576 15.6704C132.428 15.9052 133.181 16.4108 133.72 17.1108C134.259 17.8108 134.556 18.6673 134.566 19.5509H134.633C135.626 19.5509 136.578 19.9454 137.28 20.6475C137.983 21.3496 138.377 22.3019 138.377 23.2949C138.377 24.2879 137.983 25.2402 137.28 25.9423C136.578 26.6445 135.626 27.0389 134.633 27.0389H120.859C120.285 27.0237 119.74 26.7844 119.341 26.3724C118.941 25.9603 118.719 25.4081 118.721 24.8341Z" fill="#F0F0F0"/>
<path d="M84.6505 9.31732C84.6505 8.73329 84.8822 8.17312 85.2948 7.75976C85.7074 7.3464 86.2671 7.11362 86.8511 7.11252C87.0653 7.11551 87.278 7.1477 87.4835 7.2082C87.4459 6.9856 87.4292 6.75998 87.4336 6.53428C87.4336 5.29968 87.924 4.11566 88.797 3.24267C89.67 2.36968 90.854 1.87924 92.0886 1.87924C92.3759 1.8792 92.6626 1.90426 92.9456 1.95412C93.4048 1.20006 94.0967 0.615676 94.917 0.289009C95.7372 -0.0376592 96.6414 -0.0889176 97.4934 0.142956C98.3453 0.37483 99.0988 0.877276 99.6404 1.5746C100.182 2.27192 100.482 3.12635 100.496 4.00916H100.563C101.054 4.00916 101.541 4.106 101.995 4.29415C102.45 4.48231 102.862 4.75809 103.21 5.10575C103.558 5.45341 103.833 5.86615 104.022 6.32039C104.21 6.77463 104.307 7.26149 104.307 7.75316C104.307 8.24483 104.21 8.73168 104.022 9.18593C103.833 9.64017 103.558 10.0529 103.21 10.4006C102.862 10.7482 102.45 11.024 101.995 11.2122C101.541 11.4003 101.054 11.4972 100.563 11.4972H86.7804C86.212 11.481 85.6721 11.2446 85.2747 10.8379C84.8773 10.4312 84.6535 9.88594 84.6505 9.31732Z" fill="#F5F5F5"/>
<path d="M187.515 25.1919C187.514 25.0109 187.55 24.8317 187.619 24.6646C187.689 24.4974 187.79 24.3458 187.919 24.2184C188.047 24.0911 188.2 23.9905 188.368 23.9227C188.536 23.8548 188.715 23.821 188.896 23.8232C189.037 23.8219 189.177 23.8415 189.312 23.8815C189.291 23.7438 189.28 23.6048 189.279 23.4655C189.279 22.6932 189.586 21.9525 190.132 21.4064C190.678 20.8603 191.418 20.5535 192.191 20.5535C192.369 20.5534 192.548 20.5701 192.723 20.6034C193.019 20.1574 193.448 19.8165 193.95 19.6296C194.451 19.4427 194.999 19.4195 195.515 19.5631C196.03 19.7068 196.487 20.01 196.82 20.4293C197.152 20.8486 197.343 21.3625 197.366 21.8972H197.403C198.007 21.8943 198.589 22.1252 199.026 22.5416C199.464 22.958 199.723 23.5276 199.75 24.131C199.777 24.7344 199.569 25.3247 199.171 25.7784C198.772 26.2321 198.213 26.5139 197.611 26.5647C197.542 26.5688 197.473 26.5688 197.403 26.5647H188.842C188.485 26.5549 188.146 26.4057 187.898 26.1491C187.65 25.8924 187.513 25.5488 187.515 25.1919Z" fill="#F0F0F0"/>
<path d="M45.4508 21.6933C45.4503 21.5138 45.4852 21.3359 45.5535 21.1699C45.6218 21.0039 45.7222 20.8529 45.849 20.7258C45.9757 20.5987 46.1263 20.4978 46.2922 20.4289C46.458 20.3601 46.6358 20.3247 46.8153 20.3247C46.9563 20.3194 47.0972 20.3391 47.2313 20.3829C47.2121 20.245 47.201 20.1061 47.198 19.9669C47.198 19.1946 47.5048 18.4539 48.0509 17.9078C48.597 17.3617 49.3377 17.0549 50.11 17.0549C50.2887 17.0548 50.467 17.0715 50.6425 17.1048C50.9282 16.6359 51.3585 16.2725 51.8685 16.0694C52.3786 15.8662 52.9409 15.8342 53.4708 15.9783C54.0006 16.1224 54.4693 16.4347 54.8063 16.8682C55.1432 17.3017 55.3302 17.833 55.3391 18.382H55.3599C55.9613 18.4074 56.5296 18.6641 56.9461 19.0986C57.3626 19.5331 57.5952 20.1117 57.5952 20.7136C57.5952 21.3155 57.3626 21.8942 56.9461 22.3287C56.5296 22.7632 55.9613 23.0199 55.3599 23.0453H46.7945C46.4384 23.0399 46.0985 22.8955 45.8474 22.6429C45.5964 22.3902 45.454 22.0495 45.4508 21.6933Z" fill="#F0F0F0"/>
<path d="M60.3104 83.1948C60.3099 83.0156 60.3446 82.8381 60.4127 82.6723C60.4808 82.5065 60.5808 82.3558 60.7071 82.2287C60.8335 82.1016 60.9836 82.0007 61.1489 81.9316C61.3142 81.8625 61.4916 81.8267 61.6707 81.8261C61.8117 81.8227 61.9522 81.8424 62.0867 81.8844C62.0689 81.7464 62.0592 81.6075 62.0576 81.4684C62.0576 80.6961 62.3644 79.9554 62.9105 79.4093C63.4566 78.8632 64.1973 78.5564 64.9696 78.5564C65.1483 78.5563 65.3266 78.573 65.5021 78.6063C65.788 78.1371 66.2186 77.7736 66.7291 77.5705C67.2396 77.3674 67.8023 77.3358 68.3324 77.4804C68.8624 77.625 69.3311 77.938 69.6677 78.3722C70.0044 78.8064 70.1907 79.3382 70.1987 79.8876H70.2362C70.5421 79.8876 70.8451 79.9478 71.1277 80.0649C71.4103 80.182 71.6671 80.3536 71.8835 80.5699C72.0998 80.7862 72.2714 81.043 72.3885 81.3257C72.5055 81.6083 72.5658 81.9112 72.5658 82.2172C72.5658 82.5231 72.5055 82.826 72.3885 83.1087C72.2714 83.3913 72.0998 83.6481 71.8835 83.8644C71.6671 84.0808 71.4103 84.2524 71.1277 84.3694C70.8451 84.4865 70.5421 84.5468 70.2362 84.5468H61.6541C61.298 84.5414 60.9581 84.3969 60.707 84.1443C60.456 83.8917 60.3136 83.5509 60.3104 83.1948Z" fill="#F0F0F0"/>
<path d="M154.326 14.4508C154.326 14.2133 154.372 13.9781 154.463 13.7586C154.553 13.539 154.686 13.3395 154.854 13.1714C155.021 13.0033 155.221 12.87 155.44 12.779C155.659 12.688 155.894 12.6412 156.132 12.6412C156.308 12.6419 156.482 12.6657 156.652 12.7119C156.627 12.5285 156.614 12.3437 156.614 12.1586C156.614 11.1425 157.018 10.1679 157.737 9.44942C158.455 8.7309 159.43 8.32724 160.446 8.32724C160.683 8.32651 160.92 8.3488 161.153 8.3938C161.522 7.76092 162.09 7.26757 162.768 6.99029C163.446 6.71301 164.197 6.6673 164.904 6.86025C165.611 7.0532 166.234 7.47402 166.677 8.05743C167.121 8.64084 167.359 9.35423 167.356 10.0869H167.418C168.216 10.1163 168.972 10.4541 169.527 11.0294C170.082 11.6046 170.391 12.3725 170.391 13.1716C170.391 13.9706 170.082 14.7385 169.527 15.3138C168.972 15.889 168.216 16.2269 167.418 16.2562H156.082C155.611 16.2443 155.164 16.0486 154.836 15.7112C154.508 15.3738 154.325 14.9214 154.326 14.4508Z" fill="#F5F5F5"/>
<path d="M120.231 46.1208C119.786 45.7381 119.224 45.2306 119.42 44.694C119.574 44.2572 120.131 44.1116 120.443 43.7704C121.084 43.0674 120.485 41.9275 119.732 41.3535C118.979 40.7794 118.01 40.3343 117.698 39.4357C117.645 39.1924 117.56 38.9572 117.444 38.7368C116.99 38.0629 115.942 38.508 115.289 38.9906C115.054 39.1607 114.798 39.3005 114.528 39.4066C114.453 39.057 114.275 38.738 114.016 38.4914C113.575 38.1087 113.009 37.6012 113.184 37.0645C113.342 36.6236 113.895 36.4821 114.216 36.1368C114.848 35.438 114.253 34.2981 113.496 33.724C112.739 33.15 111.774 32.7048 111.47 31.8063C111.416 31.5627 111.329 31.3277 111.212 31.1074C110.759 30.4335 109.71 30.8703 109.057 31.3528C108.404 31.8354 107.352 32.2639 106.902 31.5816C106.644 31.1656 106.798 30.629 106.549 30.2296C106.133 29.5599 105.08 29.8802 104.469 30.3836C103.857 30.8869 103.221 31.5692 102.447 31.3903C102.643 31.3071 102.863 31.2364 103.042 31.1448C104.02 30.629 103.874 28.7445 103.142 28.1122C102.697 27.7295 102.135 27.2303 102.331 26.6936C102.489 26.2527 103.042 26.1112 103.354 25.7618C103.995 25.0629 103.396 23.9148 102.643 23.3448C101.89 22.7749 100.92 22.3256 100.608 21.4271C100.555 21.1839 100.47 20.9489 100.355 20.7282C99.9011 20.0543 98.8486 20.4994 98.2038 20.982C97.559 21.4645 96.4941 21.8847 96.049 21.2024C95.7952 20.8114 95.9408 20.254 95.6954 19.8504C95.2794 19.1848 94.231 19.4968 93.6154 20.0085C92.9997 20.5202 92.3674 21.1899 91.5936 21.0152C90.9238 20.8571 90.5577 20.1042 89.8464 20.0168C89.135 19.9295 88.5734 20.6575 88.3987 21.3522C88.224 22.0469 88.2406 22.8124 87.8621 23.4322H87.7581C87.2701 23.1406 86.8849 22.7044 86.6557 22.1842C86.6042 21.9405 86.5188 21.7052 86.4019 21.4853C85.9526 20.8156 84.896 21.2482 84.2512 21.7349C83.6064 22.2216 82.5456 22.6418 82.0963 21.9596C81.8467 21.5685 81.9882 21.0069 81.7427 20.6076C81.3267 19.942 80.2784 20.2581 79.6627 20.7656C79.047 21.2731 78.4147 21.9512 77.6409 21.7682C76.9753 21.6101 76.6093 20.8572 75.8979 20.7698C75.1865 20.6824 74.6208 21.4104 74.4502 22.1052C74.2797 22.7999 74.288 23.5653 73.9094 24.1852C72.8777 23.9855 71.4634 24.0229 71.2179 25.0172C71.1868 25.2332 71.2007 25.4534 71.2587 25.6639C71.3167 25.8743 71.4175 26.0705 71.5549 26.2402C71.4305 26.3085 71.3134 26.3893 71.2054 26.4815C70.6022 26.9848 69.9574 27.6629 69.1754 27.484C68.5139 27.3301 68.152 26.5772 67.4365 26.4898C66.7209 26.4024 66.1552 27.1304 65.9888 27.8252C65.8224 28.5199 65.8266 29.2853 65.448 29.9052C64.4122 29.7096 63.0019 29.7471 62.7565 30.7621C62.5984 31.4277 63.1142 32.0475 63.5386 32.5883C63.9629 33.1291 64.3206 33.9237 63.8797 34.4645C63.1656 34.4272 62.4569 34.6055 61.8454 34.9762C61.5454 35.1673 61.3224 35.4582 61.2158 35.7976C61.1093 36.1371 61.126 36.5032 61.263 36.8316C61.5773 37.2708 62.0324 37.5893 62.5526 37.7343C64.0835 38.3541 63.5968 39.7103 63.1392 40.8043C63.088 40.8084 63.0365 40.8084 62.9853 40.8043C62.3155 40.6463 61.9494 39.8933 61.2422 39.8101C60.535 39.7269 59.9651 40.4508 59.7946 41.1413C59.624 41.8319 59.6323 42.6015 59.2538 43.2213C58.2138 43.0299 56.8035 43.0674 56.5622 44.0783C56.4 44.7439 56.9241 45.3637 57.3443 45.9087C57.7645 46.4536 58.1181 47.244 57.6813 47.7807C56.9646 47.7557 56.2567 47.9439 55.647 48.3215C55.3487 48.5142 55.1269 48.8049 55.0199 49.1436C54.9128 49.4822 54.9272 49.8476 55.0605 50.1768C55.4011 50.6041 55.8786 50.9009 56.4125 51.0172C59.0915 52.0988 55.5805 55.4642 56.9033 55.6847C58.6048 55.9717 60.6058 55.6348 60.7306 57.7314C60.7451 58.0726 60.7953 58.4114 60.8803 58.7423C61.2048 59.9029 62.0326 60.4063 63.7382 59.5743C64.8198 59.0626 65.0819 58.4303 66.3174 58.5842C67.1993 58.6882 67.84 59.3039 68.8134 59.2248C68.9482 59.2248 69.081 59.1919 69.2003 59.1292C69.323 59.0511 69.4244 58.9439 69.4957 58.8172C70.3651 57.5692 71.0432 58.085 72.4576 58.0226C72.5692 58.0302 72.6798 57.9977 72.7696 57.9311C72.8115 57.8882 72.8444 57.8374 72.8666 57.7817C72.8887 57.726 72.8996 57.6665 72.8986 57.6066C72.9356 57.2446 72.9032 56.8789 72.8029 56.5292C72.731 56.3584 72.7122 56.17 72.7488 55.9884C72.8195 55.7471 73.1232 55.6556 73.3561 55.5432C73.4447 55.4941 73.5295 55.4385 73.6099 55.3768C73.8172 55.2168 73.9897 55.0162 74.117 54.7874C74.2443 54.5585 74.3237 54.3061 74.3504 54.0456C75.6816 54.1704 76.9254 54.3327 77.0211 55.9592C77.0365 56.301 77.0895 56.64 77.1792 56.9701C77.4953 58.1308 78.3232 58.6341 80.0246 57.8021C81.1062 57.2904 81.3725 56.6539 82.6038 56.812C83.4858 56.916 84.1264 57.5317 85.0998 57.4527C85.2346 57.4526 85.3674 57.4198 85.4867 57.357C85.6096 57.2779 85.7122 57.171 85.7862 57.045C86.6515 55.797 87.3296 56.3128 88.744 56.2504C88.7744 56.2546 88.8051 56.2546 88.8355 56.2504C88.9367 56.2409 89.0301 56.1919 89.0955 56.1141C89.1609 56.0362 89.193 55.9358 89.1849 55.8344C89.2177 55.4821 89.1852 55.1267 89.0893 54.7861C89.0177 54.6167 88.9989 54.4297 89.0352 54.2495C89.1059 54.0082 89.4138 53.9084 89.6426 53.8002C89.7352 53.7497 89.8242 53.6927 89.9088 53.6296C90.1412 53.4445 90.3277 53.2081 90.4538 52.9391C90.9072 53.0764 91.5145 52.989 92.3174 52.6021C93.4073 52.0946 93.6694 51.454 94.9008 51.6162C95.7869 51.7202 96.4234 52.3317 97.3968 52.2568C97.5319 52.2513 97.664 52.2158 97.7837 52.1528C97.9043 52.0723 98.0053 51.9657 98.079 51.8408L98.1498 51.7493C98.1642 51.8482 98.1584 51.949 98.1326 52.0455C98.1069 52.1421 98.0618 52.2324 98 52.3109C97.4312 52.2855 96.8678 52.4304 96.3818 52.7269C96.1456 52.8783 95.9703 53.1081 95.8866 53.3758C95.803 53.6436 95.8162 53.9323 95.9241 54.1912C96.1739 54.5366 96.5331 54.7873 96.9434 54.9026C99.0525 55.7346 96.2819 58.4012 97.3302 58.5717C98.6698 58.8005 100.242 58.5343 100.346 60.1858C100.356 60.4555 100.395 60.7233 100.463 60.9845C100.716 61.8997 101.37 62.2658 102.73 61.6418C103.587 61.2258 103.791 60.7349 104.764 60.8597C105.463 60.9512 105.962 61.4296 106.728 61.3672C106.834 61.3637 106.939 61.3382 107.036 61.2924C107.128 61.2239 107.206 61.1393 107.268 61.0428C107.947 60.0735 108.483 60.4687 109.598 60.4188C109.685 60.4215 109.771 60.3968 109.844 60.348C109.909 60.2782 109.945 60.1858 109.943 60.0901C109.97 59.8108 109.946 59.5289 109.873 59.2581C109.814 59.1277 109.797 58.9826 109.823 58.8421C109.893 58.6508 110.118 58.58 110.309 58.4885C110.377 58.4494 110.442 58.4064 110.505 58.3596C110.723 58.1893 110.89 57.9632 110.99 57.7054C111.089 57.4476 111.117 57.1677 111.071 56.8952C111.362 56.815 111.666 56.7966 111.965 56.8412C112.847 56.9452 113.488 57.5608 114.461 57.4818C114.597 57.4777 114.73 57.4451 114.852 57.3861C114.97 57.3023 115.07 57.1963 115.148 57.0741C116.009 55.8261 116.691 56.342 118.105 56.2796C118.217 56.2879 118.328 56.2554 118.417 56.188C118.459 56.1443 118.491 56.0927 118.513 56.0363C118.534 55.9799 118.544 55.9197 118.542 55.8594C118.58 55.5073 118.549 55.1512 118.451 54.8111C118.38 54.6415 118.36 54.4552 118.392 54.2744C118.467 54.0332 118.771 53.9333 119.004 53.8252C119.09 53.7798 119.172 53.7269 119.249 53.6671C119.659 53.3497 119.926 52.8831 119.992 52.3693C120.058 51.8556 119.918 51.3365 119.603 50.9256C119.328 50.6136 118.904 50.3432 119.004 49.894C119.104 49.4447 119.711 49.3698 120.119 49.1535C121.088 48.6335 120.967 46.749 120.231 46.1208ZM73.4102 52.028C73.3733 51.9593 73.3506 51.8838 73.3436 51.806C73.3366 51.7283 73.3454 51.6499 73.3695 51.5757C73.3936 51.5014 73.4325 51.4328 73.4838 51.374C73.5352 51.3152 73.5979 51.2674 73.6681 51.2335C73.6023 51.5045 73.5161 51.7701 73.4102 52.028Z" fill="#5ED235"/>
<path d="M69.6496 52.6313C69.6496 52.6313 73.1856 57.6232 74.4044 59.2248C75.6233 60.8264 81.7302 70.7023 82.5622 77.2418C82.6454 77.9365 82.7369 78.5397 82.8243 79.0597C80.1993 96.3903 80.607 128.094 80.7027 133.518H89.0227C89.0976 127.399 89.8048 71.4552 90.0668 69.7496C90.3414 67.94 93.8358 61.0552 99.1897 58.2306C104.544 55.406 109.203 46.046 109.203 46.046H107.485C107.485 46.046 104.311 51.7785 99.7929 54.9525C99.1471 55.4023 98.4701 55.8054 97.767 56.1589C97.7782 52.7075 97.1695 49.2822 95.9699 46.046L95.0422 46.878C96.2902 51.9906 96.1196 55.2645 95.7452 57.1448C94.0406 57.9424 92.468 58.996 91.0819 60.269C86.3936 54.1788 83.7603 40.2428 83.7603 40.2428L82.5622 40.9C82.9005 43.7776 83.4174 46.6313 84.1097 49.4447C84.9875 53.0514 87.5708 59.8447 88.7731 62.9023C87.3341 64.9725 86.147 67.207 85.2371 69.5583C85.1079 69.3607 84.9557 69.1792 84.7836 69.0175C81.7302 66.2553 75.9936 53.2095 75.9936 53.2095C74.6041 50.181 76.7257 42.2229 76.7257 42.2229H75.1116L74.3961 49.1784L70.3692 44.7855L69.6371 45.3928L73.9052 50.8882L76.1017 57.8479L70.3692 51.4997L69.6496 52.6313Z" fill="#914601"/>
<path d="M219.522 66.1304C218.913 65.7645 218.21 65.5865 217.5 65.6188C217.084 65.0988 217.417 64.2959 217.841 63.7592C218.266 63.2226 218.773 62.6069 218.615 61.9413C218.378 60.9346 216.951 60.9013 215.957 61.1093C215.673 60.4539 215.488 59.7599 215.408 59.0501C215.225 58.3554 214.676 57.6565 213.964 57.7189C213.253 57.7813 212.891 58.5509 212.234 58.709C212.184 58.7131 212.134 58.7131 212.084 58.709C211.626 57.6149 211.131 56.2546 212.662 55.6389C213.18 55.4952 213.632 55.1779 213.943 54.7404C214.078 54.4134 214.093 54.0497 213.988 53.7124C213.882 53.3751 213.662 53.0853 213.365 52.8933C212.761 52.5309 212.063 52.3558 211.36 52.39C210.919 51.8575 211.277 51.0629 211.693 50.5263C212.109 49.9896 212.637 49.3698 212.475 48.7084C212.229 47.7058 210.832 47.6684 209.812 47.8764C209.533 47.221 209.348 46.529 209.263 45.8213C209.08 45.1224 208.564 44.4277 207.824 44.4901C207.084 44.5525 206.751 45.3221 206.098 45.4802C205.444 45.6383 204.704 44.9852 204.08 44.4818C203.975 44.3965 203.862 44.3213 203.743 44.2572C203.877 44.0886 203.975 43.8939 204.029 43.6854C204.084 43.4769 204.094 43.2593 204.059 43.0466C203.822 42.044 202.395 42.0066 201.405 42.2146C201.118 41.553 200.933 40.8517 200.856 40.1346C200.673 39.4399 200.124 38.741 199.412 38.8034C198.701 38.8658 198.339 39.6354 197.682 39.7935C196.921 39.9765 196.288 39.2984 195.668 38.7992C195.049 38.3 194.029 37.9672 193.626 38.6453C193.372 39.0613 193.522 39.5938 193.268 39.989C192.823 40.6879 191.779 40.2428 191.122 39.7602C190.464 39.2776 189.437 38.845 188.975 39.5148C188.859 39.7346 188.775 39.9699 188.725 40.2136C188.478 40.7615 188.066 41.2193 187.548 41.524C187.268 40.8706 187.084 40.1797 187.003 39.4732C186.82 38.7784 186.304 38.0796 185.568 38.1503C184.832 38.221 184.495 38.9823 183.837 39.132C183.18 39.2818 182.444 38.6453 181.824 38.1336C181.204 37.622 180.185 37.3016 179.773 37.9839C179.528 38.3999 179.677 38.9365 179.42 39.3276C178.979 40.0264 177.926 39.5855 177.277 39.1029C176.628 38.6204 175.584 38.1836 175.122 38.8533C175.01 39.0747 174.926 39.3095 174.873 39.5522C174.565 40.4424 173.604 40.8834 172.859 41.4533C172.115 42.0232 171.511 43.1631 172.16 43.8578C172.476 44.1989 173.026 44.3404 173.18 44.7772C173.375 45.3221 172.818 45.8172 172.368 46.1749C171.636 46.7948 171.499 48.6709 172.476 49.1868C172.643 49.2741 172.847 49.3365 173.03 49.4114C172.285 49.5612 171.657 48.908 171.045 48.413C170.434 47.918 169.406 47.581 168.995 48.2508C168.753 48.6668 168.899 49.2076 168.641 49.5944C168.2 50.2933 167.148 49.8524 166.494 49.374C165.841 48.8956 164.805 48.4546 164.348 49.1202C164.237 49.3428 164.152 49.5772 164.094 49.8191C163.79 50.7135 162.846 51.1503 162.072 51.7202C161.299 52.2901 160.737 53.43 161.378 54.1288C161.681 54.47 162.235 54.6072 162.393 55.0482C162.551 55.4892 162.027 56.0882 161.586 56.4418C161.321 56.696 161.14 57.0258 161.07 57.3861C160.803 57.2782 160.55 57.1386 160.317 56.9701C159.668 56.4876 158.624 56.0508 158.17 56.7205C158.05 56.9377 157.963 57.1719 157.912 57.4152C157.604 58.3096 156.644 58.7464 155.899 59.3205C155.154 59.8946 154.551 61.0261 155.2 61.725C155.512 62.0661 156.065 62.2034 156.219 62.6444C156.415 63.1893 155.853 63.676 155.387 64.038C154.692 64.6661 154.518 66.534 155.491 67.0581C155.907 67.2661 156.502 67.3368 156.602 67.7903C156.702 68.2437 156.282 68.485 156.007 68.8136C155.693 69.2211 155.554 69.7362 155.62 70.2462C155.685 70.7561 155.95 71.2193 156.356 71.5343C156.434 71.5932 156.516 71.646 156.602 71.6924C156.839 71.8047 157.126 71.8962 157.209 72.1458C157.249 72.329 157.228 72.52 157.151 72.6908C157.06 73.0295 157.029 73.3814 157.06 73.7308C157.059 73.8515 157.105 73.9676 157.188 74.0552C157.277 74.1182 157.384 74.1504 157.492 74.1468C158.886 74.2092 159.572 73.7308 160.442 74.933C160.512 75.0595 160.613 75.1656 160.737 75.2408C160.854 75.3067 160.986 75.3411 161.12 75.3407C162.089 75.4239 162.713 74.8165 163.616 74.7042C163.91 74.6596 164.211 74.6781 164.498 74.7583C164.458 75.0232 164.489 75.2939 164.588 75.543C164.686 75.792 164.849 76.0107 165.059 76.1768C165.125 76.225 165.193 76.2695 165.263 76.31C165.442 76.3973 165.679 76.468 165.741 76.6636C165.771 76.8036 165.755 76.9493 165.696 77.0796C165.62 77.35 165.596 77.6322 165.625 77.9116C165.615 77.9881 165.636 78.0653 165.683 78.1267C165.729 78.1881 165.798 78.2288 165.875 78.2402C165.905 78.2444 165.936 78.2444 165.966 78.2402C167.073 78.286 167.605 77.8991 168.279 78.86C168.341 78.9553 168.42 79.0385 168.512 79.1055C168.606 79.1527 168.71 79.1782 168.816 79.1804C169.577 79.2428 170.064 78.7644 170.771 78.677C171.74 78.5605 171.94 79.0556 172.793 79.4508C174.149 80.1372 174.798 79.7461 175.052 78.8309C175.115 78.5732 175.154 78.3099 175.168 78.0447C175.264 76.4056 176.832 76.6511 178.167 76.4389C179.203 76.2642 176.449 73.6517 178.55 72.7864C178.957 72.679 179.315 72.4334 179.561 72.0917C179.665 71.8325 179.676 71.5453 179.591 71.279C179.507 71.0127 179.333 70.7839 179.099 70.6316C178.62 70.3465 178.067 70.209 177.51 70.2364C177.447 70.1552 177.402 70.062 177.377 69.9624C177.352 69.8629 177.348 69.7593 177.364 69.6581L177.414 69.7205C177.489 69.8435 177.588 69.9497 177.706 70.0325C177.827 70.0948 177.96 70.1289 178.097 70.1324C179.066 70.2072 179.694 69.6082 180.593 69.4959C181.82 69.3378 182.078 69.9701 183.159 70.4818C183.962 70.8978 184.565 70.981 185.019 70.8479C185.145 71.1122 185.33 71.3442 185.56 71.526C185.641 71.5886 185.727 71.6442 185.818 71.6924C186.055 71.8047 186.338 71.8962 186.421 72.1458C186.459 72.3287 186.44 72.519 186.367 72.6908C186.274 73.0291 186.243 73.3814 186.275 73.7308C186.273 73.7904 186.283 73.8498 186.305 73.9056C186.326 73.9613 186.359 74.0122 186.4 74.0552C186.49 74.1177 186.598 74.1498 186.708 74.1468C188.101 74.2092 188.788 73.7308 189.649 74.933C189.723 75.0567 189.824 75.162 189.944 75.2408C190.064 75.3025 190.196 75.3366 190.331 75.3407C191.296 75.4239 191.929 74.8165 192.827 74.7042C194.054 74.5503 194.312 75.1784 195.394 75.686C197.079 76.518 197.89 76.0063 198.223 74.854C198.309 74.5262 198.361 74.1901 198.377 73.8514C198.472 72.2165 199.695 72.0626 201.043 71.942C201.072 72.1964 201.152 72.4425 201.277 72.666C201.402 72.8895 201.57 73.086 201.771 73.244C201.852 73.3072 201.938 73.3629 202.029 73.4104C202.258 73.5228 202.545 73.6143 202.636 73.8597C202.674 74.0444 202.653 74.236 202.578 74.4088C202.486 74.7473 202.454 75.0992 202.483 75.4488C202.483 75.5698 202.528 75.6865 202.607 75.7775C202.702 75.8376 202.812 75.8681 202.924 75.8648C204.317 75.9272 205.004 75.4488 205.865 76.6552C205.937 76.7775 206.037 76.8814 206.156 76.9589C206.273 77.0248 206.404 77.0592 206.539 77.0588C207.508 77.142 208.144 76.5346 209.035 76.4223C210.283 76.2684 210.52 76.8965 211.597 77.4082C213.286 78.2402 214.093 77.7618 214.43 76.6053C214.51 76.2764 214.558 75.9407 214.576 75.6028C214.7 73.5228 216.656 73.8431 218.382 73.5644C219.705 73.3439 216.206 70.0034 218.869 68.9301C219.388 68.7875 219.842 68.4701 220.154 68.0316C220.298 67.6919 220.312 67.3117 220.196 66.9619C220.08 66.6121 219.84 66.3166 219.522 66.1304ZM201.667 69.0924C201.743 69.126 201.81 69.1759 201.864 69.2385C201.918 69.301 201.957 69.3747 201.979 69.4543C202.014 69.5958 201.992 69.7452 201.917 69.8703C201.814 69.6177 201.73 69.3576 201.667 69.0924Z" fill="#5ED235"/>
<path d="M205.669 70.4776C205.669 70.4776 202.15 75.4696 200.935 77.0338C199.72 78.598 193.655 88.428 192.836 94.9218C192.744 95.6165 192.653 96.2114 192.569 96.7356C195.178 113.954 194.774 145.457 194.649 150.853H186.4C186.321 144.767 185.618 89.1685 185.36 87.4754C185.09 85.6783 181.616 78.8393 176.3 76.0313C170.983 73.2233 166.357 63.9132 166.357 63.9132H168.059C168.059 63.9132 171.216 69.6124 175.725 72.7698C176.373 73.2105 177.046 73.6106 177.743 73.9679C177.723 70.5377 178.321 67.1319 179.507 63.9132L180.426 64.7452C179.178 69.8287 179.353 73.1109 179.727 74.9455C181.424 75.7412 182.989 76.7905 184.37 78.0572C189.029 72.0002 191.642 58.1557 191.642 58.1557L192.84 58.8088C192.489 61.6739 191.964 64.5149 191.267 67.316C190.394 70.8978 187.823 77.6453 186.629 80.7071C188.047 82.7628 189.217 84.9788 190.115 87.309C190.241 87.1188 190.39 86.9454 190.56 86.7932C193.593 84.0476 199.296 71.0933 199.296 71.0933C200.69 68.0815 198.564 60.1775 198.564 60.1775H200.161L200.856 67.0914L204.858 62.7276L205.59 63.3349L201.43 68.8053L199.242 75.7234L204.945 69.4127L205.669 70.4776Z" fill="#914601"/>
<path d="M31.1695 143.59H219.202C220.183 143.565 221.134 143.931 221.845 144.608C222.557 145.284 222.97 146.215 222.995 147.196V152.625H27.3756V147.192C27.4028 146.212 27.8174 145.283 28.5285 144.607C29.2396 143.932 30.1892 143.566 31.1695 143.59Z" fill="#F0F0F0"/>
<path d="M51.1168 45.4303L49.7981 58.1016H43.192L41.8733 45.4303H51.1168Z" fill="#455A64"/>
<path d="M47.7265 55.3768H45.2679V141.476H47.7265V55.3768Z" fill="#455A64"/>
<path d="M49.1035 57.3279H43.8868L42.7303 46.1999H50.2599L49.1035 57.3279Z" fill="#F0F0F0"/>
<g filter="url(#filter0_dddddd_3_7115)">
<path d="M45.8087 57.5026H45.4551L45.0682 45.8172H45.4218L45.8087 57.5026Z" fill="#FFC727"/>
</g>
<path d="M46.4951 41.3576C46.4951 41.3576 42.5805 45.214 39.5812 45.214L40.5089 45.8255H52.4481L53.3799 45.214C50.4097 45.2223 46.4951 41.3576 46.4951 41.3576Z" fill="#455A64"/>
<path d="M175.759 152.059H177.984L173.429 126.359H171.203L175.759 152.059Z" fill="#774442"/>
<path d="M106.545 152.059H108.77L104.219 126.359H101.989L106.545 152.059Z" fill="#774442"/>
<path d="M174.598 139.209H87.1715V141.464H174.598V139.209Z" fill="#774442"/>
<path d="M155.217 152.059H152.991L157.542 126.359H159.772L155.217 152.059Z" fill="#774442"/>
<path d="M86.0026 152.059H83.777L88.3322 126.359H90.5578L86.0026 152.059Z" fill="#774442"/>
<path d="M106.203 125.356H108.421L112.127 104.735H109.914L106.203 125.356Z" fill="#774442"/>
<path d="M170.467 125.356H172.684L176.395 104.735H174.178L170.467 125.356Z" fill="#774442"/>
<path d="M138.335 125.356H140.548L144.259 104.735H142.042L138.335 125.356Z" fill="#774442"/>
<path d="M102.372 106.141H180.834L181.529 102.281H103.071L102.372 106.141Z" fill="#774442"/>
<path d="M101.116 113.126H179.578L180.272 109.265H101.815L101.116 113.126Z" fill="#774442"/>
<path d="M99.8595 120.106H178.321L179.016 116.246H100.558L99.8595 120.106Z" fill="#774442"/>
<path d="M177.739 124.753H83.3069V127.42H177.739V124.753Z" fill="#774442"/>
<defs>
<filter id="filter0_dddddd_3_7115" x="0.897282" y="1.6462" width="89.0824" height="100.027" filterUnits="userSpaceOnUse" color-interpolation-filters="sRGB">
<feFlood flood-opacity="0" result="BackgroundImageFix"/>
<feColorMatrix in="SourceAlpha" type="matrix" values="0 0 0 0 0 0 0 0 0 0 0 0 0 0 0 0 0 0 127 0" result="hardAlpha"/>
<feOffset/>
<feGaussianBlur stdDeviation="0.525845"/>
<feColorMatrix type="matrix" values="0 0 0 0 1 0 0 0 0 0.780392 0 0 0 0 0.152941 0 0 0 1 0"/>
<feBlend mode="normal" in2="BackgroundImageFix" result="effect1_dropShadow_3_7115"/>
<feColorMatrix in="SourceAlpha" type="matrix" values="0 0 0 0 0 0 0 0 0 0 0 0 0 0 0 0 0 0 127 0" result="hardAlpha"/>
<feOffset/>
<feGaussianBlur stdDeviation="1.05169"/>
<feColorMatrix type="matrix" values="0 0 0 0 1 0 0 0 0 0.780392 0 0 0 0 0.152941 0 0 0 1 0"/>
<feBlend mode="normal" in2="effect1_dropShadow_3_7115" result="effect2_dropShadow_3_7115"/>
<feColorMatrix in="SourceAlpha" type="matrix" values="0 0 0 0 0 0 0 0 0 0 0 0 0 0 0 0 0 0 127 0" result="hardAlpha"/>
<feOffset/>
<feGaussianBlur stdDeviation="3.68091"/>
<feColorMatrix type="matrix" values="0 0 0 0 1 0 0 0 0 0.780392 0 0 0 0 0.152941 0 0 0 1 0"/>
<feBlend mode="normal" in2="effect2_dropShadow_3_7115" result="effect3_dropShadow_3_7115"/>
<feColorMatrix in="SourceAlpha" type="matrix" values="0 0 0 0 0 0 0 0 0 0 0 0 0 0 0 0 0 0 127 0" result="hardAlpha"/>
<feOffset/>
<feGaussianBlur stdDeviation="7.36183"/>
<feColorMatrix type="matrix" values="0 0 0 0 1 0 0 0 0 0.780392 0 0 0 0 0.152941 0 0 0 1 0"/>
<feBlend mode="normal" in2="effect3_dropShadow_3_7115" result="effect4_dropShadow_3_7115"/>
<feColorMatrix in="SourceAlpha" type="matrix" values="0 0 0 0 0 0 0 0 0 0 0 0 0 0 0 0 0 0 127 0" result="hardAlpha"/>
<feOffset/>
<feGaussianBlur stdDeviation="12.6203"/>
<feColorMatrix type="matrix" values="0 0 0 0 1 0 0 0 0 0.780392 0 0 0 0 0.152941 0 0 0 1 0"/>
<feBlend mode="normal" in2="effect4_dropShadow_3_7115" result="effect5_dropShadow_3_7115"/>
<feColorMatrix in="SourceAlpha" type="matrix" values="0 0 0 0 0 0 0 0 0 0 0 0 0 0 0 0 0 0 127 0" result="hardAlpha"/>
<feOffset/>
<feGaussianBlur stdDeviation="22.0855"/>
<feColorMatrix type="matrix" values="0 0 0 0 1 0 0 0 0 0.780392 0 0 0 0 0.152941 0 0 0 1 0"/>
<feBlend mode="normal" in2="effect5_dropShadow_3_7115" result="effect6_dropShadow_3_7115"/>
<feBlend mode="normal" in="SourceGraphic" in2="effect6_dropShadow_3_7115" result="shape"/>
</filter>
</defs>
</svg>
